<?xml version="1.0" encoding="UTF-8"?><svg id="Layer_2" xmlns="http://www.w3.org/2000/svg" viewBox="0 0 186.06 172.18"><defs><style>.cls-1{fill:#231f20;}.cls-2{fill:#85c7f2;}</style></defs><g id="Layer_1-2"><g><path class="cls-2" d="M121.41,106.95c15.71-10.48,67.34-86.8,61.73-97.65C177.53-1.55,153.21,.06,141.25,17.88c-11.95,17.82-28.64,46.69-28.64,57.52S71.11,10.21,54.19,17.2c-16.92,6.99-11.05,23.68-9.92,26.61s31.58,43.98,38.57,47.37c6.99,3.38-71.5,11.5-79.84,27.07-8.35,15.56,87.29-3.83,87.29-3.83,0,0,48.04,54.58,62.03,55.26,13.98,.68-30.89-62.73-30.89-62.73Z"/><path class="cls-1" d="M122.68,109.1c3.09-2.08,5.75-4.82,8.26-7.54,3.66-3.96,7.08-8.15,10.41-12.4,8.3-10.62,16.04-21.69,23.29-33.06,6.41-10.04,12.7-20.36,17.5-31.29,1.55-3.54,3.14-7.24,3.72-11.09,.22-1.49,.34-3-.06-4.48-.65-2.37-2.62-4.35-4.53-5.76-5.14-3.8-12.27-4.02-18.31-2.9-7.61,1.42-14.77,5.51-20.02,11.17-2.93,3.16-5.2,6.86-7.52,10.47-2.38,3.7-4.69,7.44-6.94,11.22-4.56,7.66-8.92,15.48-12.64,23.58-1.54,3.36-3,6.78-4.14,10.3-.83,2.55-1.55,5.27-1.57,7.97,0,.51-.08,.5,.05-.1-.14,.62,.28-.49,.11-.21,.37-.6,.92-.93,1.55-1.02,.08-.01,1.11,.14,.64,0,.18,.06,.72,.24,.19,.04-.62-.24,.42,.42,0,0-.37-.36-.75-.7-1.1-1.08-.99-1.07-1.9-2.22-2.8-3.37-.43-.55,.24,.32-.11-.14-.14-.18-.28-.37-.42-.55-.31-.41-.62-.82-.93-1.23-.65-.87-1.3-1.75-1.94-2.63-3.05-4.18-6.04-8.41-9.08-12.6-6.77-9.33-13.66-18.73-21.71-27-3.18-3.27-6.63-6.49-10.58-8.8-2.95-1.72-6.65-3.08-10.06-1.97-6.86,2.24-12.5,8.17-13.69,15.35-.78,4.68-.17,9.55,1.45,14,.99,2.72,2.98,5.1,4.65,7.43,3.39,4.75,6.89,9.42,10.45,14.04,4.05,5.27,8.18,10.49,12.47,15.57,3.08,3.65,6.21,7.46,9.88,10.54,.64,.54,1.3,1.08,2.01,1.51,.17,.1,.37,.24,.56,.3,.32,.11-.29-.23-.35-.28,.29,.28-.41-.61-.27-.36-.41-.7-.4-1.54,0-2.23-.15,.27,.49-.58,.29-.37-.3,.31,.48-.24,.31-.22-.11,0-.27,.18-.38,.23-.08,.03-.18,.08-.25,.12-.46,.26,.38-.13,.2-.08-3.08,.84-6.11,1.75-9.24,2.44-11.02,2.42-22.11,4.52-33.08,7.2-5.86,1.43-11.7,2.99-17.42,4.91-4.76,1.6-9.57,3.4-13.89,5.98-2.92,1.75-6.42,4.25-7.4,7.72-.81,2.87,.82,5.34,3.41,6.5,3.16,1.42,6.8,1.66,10.22,1.78,4.67,.17,9.36-.08,14.01-.44,11.35-.87,22.65-2.47,33.89-4.26,8.47-1.35,16.92-2.84,25.35-4.46,1.29-.25,2.57-.5,3.86-.76l-2.43-.64c6.01,6.82,12.23,13.48,18.54,20.02,5.45,5.64,10.99,11.2,16.73,16.54,5.27,4.91,10.7,9.73,16.58,13.9,2.09,1.48,4.25,2.9,6.58,3.98,1.83,.85,3.9,1.68,5.95,1.53,4.76-.34,5.01-5.24,4.12-8.87-1.26-5.18-3.88-10.11-6.37-14.79-3.24-6.09-6.8-12.01-10.47-17.85-5.22-8.33-10.67-16.52-16.32-24.56-.1-.14-.19-.27-.29-.41-.78-1.1-2.18-1.62-3.42-.9-1.09,.64-1.68,2.31-.9,3.42,4.64,6.56,9.1,13.25,13.45,20,3.67,5.7,7.25,11.47,10.61,17.36,1.55,2.72,3.06,5.47,4.47,8.26,.65,1.28,1.27,2.57,1.87,3.87,.26,.57,.52,1.15,.76,1.73,.15,.35-.23-.57-.02-.04,.06,.16,.13,.31,.19,.47,.12,.31,.24,.61,.36,.92,.39,1.01,.75,2.04,1.04,3.08,.12,.41,.22,.82,.31,1.24,.04,.19,.08,.39,.11,.58,.02,.11,.03,.22,.06,.33,.11,.43-.04-.64-.03-.24,0,.36,.07,.71,.06,1.07,0,.14-.03,.29-.02,.44,.01,.49,.21-.66,0-.11-.04,.1-.09,.25-.1,.35-.05,.46,.33-.66,.06-.16-.12,.21-.44,.54,.17-.19-.16,.19-.6,.49,.18-.09-.09,.06-.18,.12-.27,.17-.2,.1,.76-.28,.18-.1-.62,.2,.14-.18,.19,0,0,0-.46,.01-.5,.02-.16,0-.32-.04-.48-.04,.84-.04,.34,.06,.04,0-.44-.1-.86-.21-1.29-.35-.22-.07-.44-.16-.66-.24-.08-.03-.16-.07-.25-.1-.48-.17,.55,.27,.09,.04-.48-.24-.98-.45-1.46-.7-1.1-.57-2.17-1.21-3.21-1.89-1.21-.78-2.38-1.61-3.54-2.46-.28-.21-.56-.42-.84-.63-.11-.09-.93-.71-.52-.4-.71-.55-1.41-1.11-2.11-1.67-2.73-2.21-5.38-4.52-7.98-6.88-5.7-5.16-11.18-10.56-16.56-16.06-7.28-7.43-14.19-15.17-21.26-22.79-.11-.12-.22-.24-.32-.37-.61-.69-1.59-.81-2.43-.64-4.77,.97-9.57,1.85-14.36,2.71s-9.74,1.7-14.62,2.48c-2.73,.44-5.46,.85-8.2,1.25-1.4,.2-2.8,.4-4.2,.6-.35,.05-.7,.1-1.05,.14-.11,.02-1.12,.15-.63,.08-.7,.09-1.41,.19-2.11,.28-9.99,1.29-20.18,2.53-30.28,2.21-.94-.03-1.89-.08-2.83-.15-.43-.03-.86-.08-1.29-.12-.18-.02-.36-.05-.55-.07-.41-.04,.25,.03,.27,.04-.13-.02-.26-.04-.39-.06-.71-.12-1.42-.24-2.12-.43-.31-.08-.61-.17-.91-.27-.12-.04-.25-.09-.37-.13-.55-.18,.19,.11,.08,.04-.22-.13-.46-.22-.68-.35-.09-.05-.18-.12-.27-.17-.43-.23,.18,.19,.15,.12-.05-.09-.34-.38-.44-.43-.27-.15,.47,.59,.2,.25-.06-.08-.11-.18-.15-.27-.1-.21,.28,.75,.13,.28-.03-.09-.05-.18-.06-.27,.11,.85,.19,.35,.06,.02-.03-.08-.2,.69-.03,.29,.04-.09,.07-.23,.09-.32,.14-.68-.32,.49,.07-.16,.17-.29,.34-.57,.52-.85,.12-.19,.49-.54-.04,.03,.14-.15,.26-.32,.4-.47,.54-.61,1.14-1.13,1.76-1.65,.52-.43-.34,.23,.13-.1,.19-.13,.37-.27,.56-.4,.39-.27,.79-.53,1.2-.79,.88-.55,1.8-1.06,2.72-1.53,1.02-.52,2.06-1.01,3.11-1.47,.25-.11,.49-.21,.74-.32-.55,.23,.43-.17,.54-.22,.59-.24,1.18-.47,1.78-.7,2.56-.97,5.15-1.84,7.77-2.65,11.42-3.53,23.15-6,34.85-8.44,4.74-.99,9.49-1.94,14.21-3.02,2.78-.64,5.89-1.16,8.44-2.52,1.31-.7,2.32-2.05,1.88-3.6-.39-1.39-1.77-1.94-2.85-2.7,.69,.48-.18-.16-.41-.36-.35-.3-.69-.62-1.03-.93-.76-.72-1.5-1.46-2.22-2.22-1.82-1.9-3.55-3.87-5.26-5.86-8.03-9.37-15.21-18.75-22.4-28.73-1.18-1.64-2.35-3.28-3.48-4.95-.36-.54-.72-1.07-1.06-1.62-.11-.18-.21-.36-.32-.53-.39-.65,.18,0,.04,.17,.08-.09-.55-1.56-.6-1.71-.28-.9-.52-1.82-.72-2.74-.11-.52-.2-1.05-.29-1.57-.1-.58,.02,.33-.06-.43-.04-.34-.07-.69-.09-1.04-.09-1.32-.07-2.65,.07-3.97,0-.09,.07-.49,0-.02,.02-.15,.04-.31,.07-.46,.07-.35,.13-.69,.21-1.04,.17-.74,.4-1.47,.67-2.19s1.36-2.63,1.94-3.34c1.9-2.31,4.72-4.47,7.66-5.27,.14-.04,.27-.06,.41-.1,.49-.13,.08,.05-.09,0,.27,.08,.73-.04,1.03-.03,.15,0,.3,.04,.45,.03,.25-.01-.68-.14-.04,0,.37,.08,.75,.16,1.11,.26s.69,.23,1.03,.35c.66,.24-.22-.13,.08,.03,.2,.11,.42,.19,.63,.3,.81,.4,1.58,.85,2.34,1.34,.39,.25,.77,.51,1.14,.78,.21,.15,.41,.3,.61,.45,.09,.07,.18,.14,.27,.21,.4,.3-.39-.31,.05,.03,.86,.69,1.71,1.39,2.53,2.13,1.83,1.64,3.57,3.38,5.25,5.17,3.82,4.07,7.36,8.39,10.78,12.79,.2,.25,.4,.51,.59,.77-.21-.28,.33,.43,.42,.55,.47,.61,.93,1.22,1.4,1.83,.88,1.16,1.75,2.32,2.61,3.48,1.69,2.27,3.35,4.56,5.01,6.86,2.91,4.03,5.78,8.08,8.72,12.08,2.03,2.76,4.04,5.64,6.44,8.1,.79,.81,1.7,1.66,2.8,1.99,1.66,.5,3.33-.44,3.81-2.09,.19-.65,.15-1.32,.19-1.98,.01-.24,.04-.47,.06-.71,.06-.7-.04,.16,.04-.28,.12-.66,.24-1.31,.39-1.95,.73-3.04,1.87-6.07,3.05-8.89,3.23-7.7,7.34-15.23,11.53-22.51,4.3-7.46,8.74-14.94,13.72-21.97,4.27-6.04,10.72-10.47,17.72-12.39,3.17-.87,5.91-1.21,9.28-.95,.96,.07,.9,.07,1.66,.21s1.46,.31,2.18,.53c.33,.1,.65,.21,.97,.33,.14,.05,.28,.11,.42,.16-.43-.17-.07-.03,.01,0,.62,.28,1.22,.6,1.8,.97,.26,.17,.52,.35,.77,.53-.41-.31,.16,.14,.29,.26,.23,.2,.45,.41,.66,.64,.13,.13,.64,.74,.52,.59-.15-.2,.3,.44,.38,.57,.14,.22,.24,.5,.4,.7,.27,.34-.13-.63-.1-.25,0,.11,.08,.23,.11,.34s.04,.23,.07,.34c.15,.46,0-.6-.03-.26-.02,.27,.04,.57,.03,.85s-.03,.56-.05,.85c0,.12-.09,.73-.02,.2s-.03,.16-.05,.29c-.28,1.64-.78,3.24-1.32,4.81-.34,.96-.7,1.91-1.08,2.85-.1,.25-.21,.5-.31,.76-.14,.33,.14-.31-.11,.26s-.49,1.12-.74,1.68c-2.25,4.98-4.84,9.82-7.54,14.57-6.52,11.48-13.75,22.58-21.37,33.36-6.74,9.54-13.28,18.43-21.26,27.02-1.31,1.41-2.65,2.79-4.07,4.1-.57,.53-1.15,1.05-1.76,1.54-.14,.12-.29,.23-.43,.35-.42,.35,.5-.35,0,0-.27,.19-.53,.38-.8,.56-2.66,1.78-.16,6.12,2.52,4.32Z"/></g></g></svg>