<?xml version="1.0" encoding="UTF-8"?><svg id="Layer_2" xmlns="http://www.w3.org/2000/svg" viewBox="0 0 184.54 162.93"><defs><style>.cls-1{fill:#ebee9b;}.cls-2{fill:#231f20;}</style></defs><g id="Layer_1-2"><g><path class="cls-1" d="M61.73,50.75c-31.34,13.06-1.83,33.9,7.86,43.56,7.76,7.74,24.8,69.87,4.84,65.94-19.96-3.93-60.5,5.75-58.68-7.86C17.57,138.77,.33,58.62,2.75,47.46c14.56-67.05,91.08-15.36,91.08-15.36,0,0-5.84-18.61-3.23-24.01s53.62-6.92,57.13-4.37c3.51,2.55,2.24,7.03,4.47,16.61,2.24,9.58-1.54,25.2-.9,25.83,.64,.64,29.68,12.38,30.64,19.73,.96,7.34-6.66,9.83-10.18,19.73-3.51,9.9-8.07,19.97-8.07,30.83s-31.29,40.24-35.13,32.57c-3.83-7.66-25.87-25.55-25.87-25.55,0,0,14.05-8.3,40.24-9.9,0,0-11.63-39.83-4.67-47.99,6.96-8.17,1.97-45.79-20.87-26.92,0,0-9.98,9.38-2.46,25.42-3.42-.29-8.54-.33-14.48,1.2-7.09,1.82-12.2,5.06-15.16,7.27-.43-11.01-6.15-19.85-13.96-22.1-1.7-.49-5.05-1.12-9.59,.31Z"/><path class="cls-2" d="M61.07,48.34c-5.15,2.17-10.42,4.95-13.62,9.73-2.27,3.39-2.76,7.55-1.72,11.46s3.54,7.66,6.18,10.89c2.72,3.33,5.82,6.33,8.98,9.24,2.44,2.25,5.04,4.39,7.3,6.82,.07,.07,.12,.16,.19,.22,.3,.29-.36-.54-.14-.18,.1,.16,.22,.3,.32,.45,.31,.45,.6,.92,.87,1.4,.62,1.08,1.17,2.21,1.69,3.34,.15,.32,.29,.65,.44,.97,.05,.12,.45,1.05,.19,.43,.33,.79,.65,1.58,.96,2.38,.62,1.61,1.2,3.24,1.75,4.89,1.23,3.66,2.3,7.37,3.24,11.12s1.82,7.84,2.46,11.81c.14,.89,.28,1.78,.4,2.67,.11,.79-.06-.5,.04,.29,.03,.24,.06,.48,.09,.71,.07,.55,.13,1.1,.19,1.65,.18,1.73,.31,3.46,.37,5.19,.06,1.64,.05,3.29-.06,4.93-.02,.38-.06,.76-.09,1.14-.02,.19-.17,1.36-.06,.61-.1,.68-.21,1.36-.36,2.03-.14,.62-.31,1.23-.51,1.82-.1,.28-.21,.55-.31,.83,.3-.77-.07,.11-.16,.29-.12,.24-.26,.47-.4,.69s-.7,.82-.13,.22c-.34,.35-.67,.69-1.02,1.03,.59-.58,.06-.06-.17,.08-.26,.15-.93,.32-.14,.11-.21,.06-.41,.15-.63,.21-.28,.08-1.12,.1-.25,.08-.54,.01-1.09,0-1.63,0s.6,.14,.08,0c-.1-.02-.2-.04-.3-.06-.56-.11-1.12-.21-1.68-.29-4.54-.7-9.13-.84-13.71-.82-9.58,.06-19.16,.97-28.74,.71-1.95-.05-3.9-.16-5.84-.41,.59,.08-.13-.02-.21-.03-.21-.03-.42-.07-.63-.1-.34-.06-.67-.12-1.01-.19-.79-.17-1.58-.37-2.35-.65-.16-.06-.32-.12-.48-.18-.55-.21,.5,.25,0,0-.23-.12-.47-.23-.7-.36-.26-.15-.5-.31-.74-.48,.67,.46-.14-.18-.32-.34-.45-.4,.19,.45-.13-.17-.12-.24-.34-.91-.13-.15-.06-.24-.13-.54-.22-.76-.18-.42-.02,.59,.01,.12,.01-.19-.02-.39-.02-.58,.03-1.94,.22-3.82,.12-5.77-.14-2.81-.43-5.62-.76-8.42-1.96-16.89-5.02-33.65-7.72-50.43-.69-4.28-1.37-8.57-2.02-12.85-.3-1.99-.59-3.97-.88-5.96-.12-.86-.24-1.73-.36-2.59-.03-.23-.06-.46-.09-.69-.1-.76,.07,.51-.03-.24-.07-.52-.14-1.04-.2-1.55-.66-5.13-1.53-10.5-1.19-15.69,.01-.16,.03-.31,.04-.47,0-.09,.03-.18,.03-.26,0-.37-.23,.62-.05,.34,.06-.09,.06-.33,.08-.44,.15-.76,.34-1.51,.52-2.26,.59-2.39,1.3-4.75,2.15-7.05,.74-2,1.47-3.67,2.53-5.67,.91-1.71,1.93-3.37,3.07-4.94,.5-.68,.69-.93,1.4-1.77,.58-.68,1.19-1.33,1.82-1.97s1.25-1.2,1.91-1.76c.32-.27,.65-.54,.99-.8-.45,.35,.1-.07,.16-.12,.17-.12,.34-.25,.51-.37,1.34-.95,2.75-1.79,4.21-2.52,.36-.18,.73-.35,1.1-.52,.18-.08,.37-.16,.55-.24-.57,.24,.06-.02,.15-.05,.75-.29,1.5-.57,2.27-.81,1.53-.49,3.1-.86,4.68-1.14,.4-.07,.8-.13,1.19-.19,.68-.1-.54,.06,.14-.02,.2-.02,.4-.05,.6-.07,.81-.09,1.62-.16,2.43-.2,3.31-.19,6.62,0,9.9,.39,.1,.01,.79,.11,.17,.02,.21,.03,.42,.06,.62,.09,.42,.06,.83,.13,1.24,.2,.83,.14,1.66,.29,2.48,.46,1.65,.33,3.29,.72,4.92,1.15,3.2,.85,6.36,1.87,9.46,3.02,1.49,.55,2.97,1.14,4.45,1.75,.1,.04,.71,.3,.12,.05,.18,.08,.36,.15,.53,.23,.29,.13,.59,.25,.88,.38,.75,.33,1.49,.66,2.23,1,2.49,1.14,4.95,2.36,7.37,3.63,3.2,1.69,6.34,3.48,9.39,5.41,.43,.27,.85,.54,1.27,.82,1.81,1.22,4.31-.8,3.67-2.82-1.19-3.81-2.17-7.7-2.93-11.62-.54-2.81-.94-5.05-.88-8,0-.29,.02-.59,.04-.88,.01-.19,.12-.94,.02-.35,.08-.51,.22-.98,.37-1.47,.09-.3-.23,.44-.04,.13,.23-.37-.4,.52-.2,.25,.06-.08,.14-.14,.21-.2,.14-.12-.63,.37-.14,.12,.23-.12,.44-.26,.67-.38,.11-.06,.24-.1,.35-.16,.32-.18-.26,.11-.28,.12,.12-.04,.23-.09,.34-.13,.72-.26,1.44-.48,2.18-.68,1.93-.51,3.91-.86,5.88-1.16,.57-.09,1.15-.17,1.73-.25,.49-.07,.1-.01,0,0,.15-.02,.3-.04,.45-.06,.34-.04,.69-.09,1.03-.13,1.28-.15,2.56-.29,3.85-.42,2.78-.27,5.56-.48,8.35-.65,5.49-.33,10.99-.51,16.49-.5,2.23,0,4.47,.04,6.7,.15,.9,.04,1.81,.1,2.71,.17,.39,.03,.77,.07,1.16,.11,.18,.02,.35,.05,.53,.06,.39,.04-.68-.12,0,0,.51,.09,1,.19,1.5,.31,.62,.15-.01-.04-.05-.05,.03,0,.14,.06,.15,.08,.03,.09-.1-.08-.14-.11,.16,.12,.29,.27,.44,.4,.09,.09,.18,.19,.26,.29-.01-.02-.25-.36-.1-.13,.14,.21,.26,.44,.39,.65,.3,.48-.04-.24,.13,.31,.09,.3,.19,.6,.27,.91,.37,1.47,.43,2.37,.6,3.73,.26,2.08,.53,4.16,.92,6.23,.34,1.84,.86,3.69,1.03,5.48,.37,3.71,.17,7.47-.19,11.17-.31,3.21-.71,5.72-1.11,8.87-.23,1.76-.53,3.7,1.28,4.77,1.07,.63,2.27,1.07,3.39,1.59,2.1,.96,4.2,1.94,6.27,2.95,5.07,2.46,10.15,5.06,14.76,8.31,.26,.18,.51,.36,.76,.55,.12,.09,.75,.58,.39,.29,.44,.35,.88,.71,1.3,1.09,.38,.34,.75,.7,1.11,1.07,.16,.17,.32,.35,.47,.53,.44,.48-.1-.21,.17,.21,.19,.3,.36,.66,.57,.95,.15,.21-.09-.5,0,.01,.01,.09,.15,.65,.1,.35-.06-.38,.01,.21,.01,.3,0,.18,.02,.37,.01,.55,0,.31-.01,.62-.05,.93,.05-.35-.11,.42-.15,.58-.05,.19-.38,1.09-.26,.8-1.23,2.82-3.36,4.76-5.24,7.26-2.63,3.48-4.11,7.31-5.61,11.37-1.69,4.59-3.46,9.15-4.79,13.86s-2.08,9.55-2.23,14.49c0,.17-.02,.35-.02,.52-.01,.62,.1-.31,0,.02-.13,.4-.18,.84-.3,1.25s-.27,.79-.41,1.18c-.16,.41,.02-.04,.05-.11-.05,.11-.1,.22-.15,.33-.12,.26-.24,.51-.36,.77-1.05,2.12-2.36,4.11-3.76,6.02-.19,.26-.39,.52-.58,.78-.03,.04-.28,.37-.06,.08-.08,.1-.15,.2-.23,.3-.45,.57-.9,1.13-1.36,1.68-.89,1.08-1.81,2.13-2.76,3.16-1.95,2.13-3.99,4.17-6.12,6.12-3.63,3.32-6.91,6.16-11.43,8.36-.2,.1-.41,.19-.61,.29-.32,.15,.44-.15-.14,.06-.39,.14-.77,.28-1.17,.39-.17,.05-.34,.08-.51,.12-.4,.1-.23-.01,.12,0-.21,0-.74-.06-.93,.01,0,0,.69,.14,.18,0s.21,.11,.17,.09c-.63-.3,.36,.45-.16-.13,.54,.6,.09,.03-.1-.31-.24-.43-.5-.85-.77-1.26-3.17-4.69-7.46-8.68-11.59-12.52-3.81-3.54-7.73-6.96-11.72-10.29-.66-.55-1.32-1.1-1.99-1.65l-.51,3.93c.51-.3,1.04-.57,1.57-.83,.64-.32,1.29-.62,1.95-.91,.22-.1,1.27-.54,.66-.29,.51-.21,1.03-.42,1.55-.63,5.85-2.3,11.97-3.92,18.15-5.07,4.99-.93,10.03-1.51,15.1-1.83,1.58-.1,2.89-1.52,2.41-3.16-2.02-6.92-3.66-13.98-4.97-21.07-1-5.42-1.76-10.24-1.83-15.84-.01-1.14,0-2.28,.09-3.41,.02-.24,.04-.48,.06-.71,.01-.13,.12-.99,.03-.31,.07-.49,.15-.98,.26-1.46,.09-.42,.2-.83,.33-1.23,.06-.18,.12-.35,.18-.53,.22-.65-.2,.3,.07-.17,.17-.29,.38-.61,.53-.91s-.37,.46,0,0c.21-.26,.42-.53,.62-.8,2.18-3.07,2.75-7.27,2.91-10.93,.19-4.38-.37-8.94-1.81-13.09-1.36-3.93-3.61-7.92-7.35-10.02-4.28-2.41-9.2-1.51-13.37,.69-3.52,1.86-6.39,4.21-8.38,7.65-3.19,5.51-3.79,12.08-2.29,18.21,.54,2.21,1.38,4.33,2.33,6.39l2.16-3.76c-10.94-.9-22.09,2.26-30.91,8.81l3.76,2.16c-.33-7.23-2.69-14.73-8-19.88s-11.98-6.36-18.72-4.32c-3.07,.93-1.76,5.75,1.33,4.82,5.3-1.6,10.17-.67,14.08,3.26,4.2,4.21,6.04,10.3,6.31,16.12,.08,1.7,2.14,3.36,3.76,2.16,8.19-6.09,18.2-8.97,28.38-8.13,2.07,.17,2.88-2.21,2.16-3.76-1.53-3.32-2.51-6.94-2.46-10.61,.02-1.54,.14-2.57,.47-3.98,.15-.63,.33-1.25,.53-1.86,.09-.27,.19-.53,.29-.8,.06-.15,.11-.29,.17-.44-.1,.23-.07,.16,.02-.03,.41-.9,.88-1.78,1.41-2.61,.21-.33,.45-.65,.67-.97,.31-.45-.29,.33-.03,.03,.1-.11,.19-.24,.29-.35,.9-1.06,2.03-1.84,3.19-2.6,.57-.38,1.16-.73,1.76-1.06,.26-.14,.53-.28,.79-.41,.14-.07,.88-.4,.5-.25,.99-.42,2.03-.7,3.08-.9,.47-.09,0,0-.09,.01,.13-.01,.25-.03,.38-.03,.22-.01,.43-.02,.65-.03s.42,0,.63,.01c.28,.02,.77,.1,.21,0,.42,.07,.83,.16,1.24,.28,.19,.06,.37,.13,.55,.19,.34,.11-.38-.23,.16,.08,.36,.21,.72,.4,1.07,.62,.22,.14,.48,.36,.1,.05,.18,.14,.35,.28,.52,.43,.32,.29,.62,.59,.91,.91,.14,.15,.27,.31,.4,.47,.23,.27-.2-.31,.15,.2,.53,.77,1.01,1.55,1.43,2.38,.11,.23,.22,.46,.33,.69,.04,.09,.08,.18,.12,.27,.15,.33-.16-.4-.02-.06,.19,.46,.36,.92,.52,1.39,.33,.96,.61,1.95,.83,2.94,.12,.5,.22,1.01,.31,1.52,.04,.24,.08,.48,.12,.72,.03,.2,.13,.91,.06,.37,.26,2.03,.36,4.08,.27,6.12-.02,.49-.05,.97-.1,1.46-.02,.22-.04,.44-.07,.66-.01,.12-.03,.25-.04,.37,.02-.17,.06-.43,.01-.11-.13,.87-.29,1.74-.52,2.59-.1,.39-.22,.78-.35,1.17-.06,.17-.13,.34-.19,.51-.21,.59,.11-.2-.04,.09-.3,.62-.63,1.18-1.02,1.76,.45-.67,.12-.17,0-.01-.2,.25-.41,.51-.59,.78-.2,.29-.37,.6-.52,.92-.42,.87-.75,1.78-.98,2.72-.51,2.09-.67,4.28-.7,6.43-.06,5.24,.67,10.5,1.54,15.65s1.9,9.93,3.1,14.84c.69,2.82,1.32,5.71,2.22,8.47,.05,.14,.08,.28,.12,.42l2.41-3.16c-13.4,.84-27.2,3.32-39.4,9.16-.71,.34-1.42,.68-2.1,1.08-1.27,.75-1.78,2.89-.51,3.93,7.42,6.02,14.79,12.36,21.23,19.42,.88,.96,1.74,1.95,2.54,2.98,.24,.3-.23-.3,0,0,.08,.11,.16,.22,.24,.33,.15,.21,.31,.42,.45,.64,.28,.41,.55,.83,.79,1.26,.97,1.75,2.36,2.8,4.41,2.9,1.84,.09,3.67-.65,5.3-1.41,2.04-.95,3.93-2.21,5.74-3.53,4.74-3.46,9.08-7.46,13.04-11.78,3.63-3.96,7.23-8.28,9.63-13.12,.95-1.93,1.72-3.93,1.87-6.09s.12-4.19,.45-6.28c.38-2.45,.94-4.88,1.62-7.26,1.37-4.85,3.2-9.55,4.94-14.28,.78-2.12,1.48-4.23,2.6-6.2,.85-1.51,1.87-2.95,2.93-4.29,2.03-2.54,4.32-5,5.32-8.16,.8-2.5,.73-5.46-.76-7.69-1.37-2.06-3.31-3.63-5.27-5.1-2.27-1.69-4.7-3.16-7.17-4.54-4.7-2.65-9.58-4.97-14.48-7.22-.78-.36-1.56-.71-2.34-1.07-.39-.18-.85-.51-1.27-.61-.02,0-.11-.08-.13-.08,.46-.17,1.25,1.89,1.12,1.9-.02,0,.03-.87,.03-.93,.04-.45,.1-.9,.16-1.35,.01-.11,.06-.48,0,.05,.02-.15,.04-.3,.06-.44,.05-.36,.1-.72,.15-1.08,1.01-7.33,2.12-15.04,.51-22.37-.84-3.84-1.21-7.71-1.87-11.59-.44-2.6-1.49-5.22-3.82-6.69-1.12-.71-2.6-.83-3.87-1-1.73-.22-3.47-.33-5.21-.4-5.18-.22-10.37-.14-15.54,.04-5.77,.2-11.53,.55-17.27,1.17-4.54,.49-9.23,.98-13.6,2.34-1.46,.45-3.03,1.01-4.17,2.07-1.57,1.47-1.81,3.93-1.86,5.95-.14,5.85,1.43,11.88,2.96,17.49,.33,1.19,.66,2.39,1.03,3.57l3.67-2.82c-5.92-4-12.38-7.33-18.88-10.26-12.23-5.5-25.91-9.99-39.49-8.98-6.83,.51-13.6,2.49-19.2,6.52-6.73,4.84-11.24,11.8-14.2,19.45-1.45,3.75-2.86,7.87-3.23,11.9-.19,2.03-.04,4.09,.1,6.12,.52,7.13,1.59,14.23,2.65,21.29,2.64,17.57,5.79,35.07,8.35,52.65,.14,.97,.28,1.94,.41,2.9,.07,.47,.13,.94,.2,1.41,.03,.23,.06,.46,.09,.69-.07-.53,.02,.14,.03,.25,.24,1.79,.46,3.58,.67,5.38,.32,2.79,.61,5.6,.74,8.41,.05,1.06,.08,2.12,.04,3.18-.03,.91-.21,1.83-.17,2.74,.16,3.14,2.22,5.49,5.01,6.73,3.34,1.48,7.08,1.85,10.69,2.04,4.6,.25,9.22,.09,13.82-.08,9.54-.36,19.27-1.19,28.78,0,.83,.1-.48-.08,.34,.05,.24,.04,.49,.07,.73,.11,.45,.07,.89,.17,1.34,.24,.78,.14,1.58,.25,2.38,.24,1.36-.03,2.68-.33,3.89-.96,2.33-1.21,3.75-3.49,4.65-5.88,1.06-2.81,1.34-5.95,1.43-8.93,.1-3.64-.2-7.3-.66-10.91-1.04-8.1-2.86-16.1-5.26-23.9-1.81-5.89-3.81-12.17-7.14-17.41-1.5-2.36-3.63-4.13-5.68-6-3.15-2.86-6.31-5.72-9.23-8.83-2.84-3.03-5.2-5.87-6.98-9.72-.32-.7,.17,.45-.12-.26-.09-.21-.17-.43-.24-.65-.15-.43-.29-.86-.4-1.29s-.2-.86-.28-1.29c-.13-.71,.04,.52-.03-.2-.02-.25-.04-.5-.05-.75-.01-.39,0-.78,.02-1.18,0-.09,.09-.8,0-.19,.03-.21,.07-.43,.11-.64,.09-.43,.22-.85,.35-1.26,.02-.06,.29-.74,.07-.24,.12-.28,.26-.56,.4-.83,.92-1.72,2.12-2.99,3.83-4.31,2.21-1.71,4.84-3.06,7.42-4.14,1.24-.52,2.14-1.65,1.75-3.08-.32-1.17-1.82-2.27-3.08-1.75Z"/></g></g></svg>