<?xml version="1.0" encoding="UTF-8"?><svg id="Layer_2" xmlns="http://www.w3.org/2000/svg" viewBox="0 0 132.17 109.69"><defs><style>.cls-1{fill:#ebee9b;}.cls-2{fill:#231f20;}</style></defs><g id="Layer_1-2"><g><path class="cls-1" d="M121.06,102.92C91.65,69.76,73.87,36.4,63.3,5.29c-.32-.93-.63-1.86-.93-2.79,0,0-31.3,73.69,8.94,104.71,0,0,55.15-64,58.32-74.99,3.17-10.99-123.53,5.4-127.07,5.78S121.44,108.6,121.06,102.92Z"/><path class="cls-2" d="M122.83,101.15c-10.85-12.25-20.78-25.28-29.53-39.11-7.81-12.34-14.67-25.28-20.42-38.7-3.02-7.04-5.7-14.23-8.09-21.51-.59-1.81-3.66-2.73-4.57-.6-3.76,8.86-6.46,18.27-8.51,27.66-3.81,17.45-5.45,36.49,0,53.78,3.26,10.32,9.24,19.64,17.84,26.3,1,.78,2.57,1.12,3.54,0,2.06-2.39,4.1-4.79,6.14-7.2,4.91-5.78,9.79-11.59,14.63-17.43,5.84-7.05,11.64-14.14,17.32-21.33,5.07-6.41,10.11-12.86,14.78-19.57,1.55-2.23,3.09-4.5,4.42-6.88,.86-1.55,2.02-3.43,1.76-5.27-.53-3.83-5.72-4.42-8.75-4.81-5.52-.71-11.16-.64-16.72-.52-7.75,.16-15.5,.62-23.23,1.17-8.63,.62-17.24,1.37-25.85,2.2-8.16,.79-16.32,1.64-24.47,2.54-6.48,.72-12.97,1.47-19.44,2.24-3.47,.42-6.93,.85-10.4,1.27-.35,.04-.71,.07-1.05,.13-1.79,.32-2.81,2.23-1.86,3.86,.56,.95,1.63,1.58,2.5,2.2,3.28,2.31,6.75,4.37,10.18,6.45,5.65,3.43,11.34,6.79,17.05,10.12,7,4.08,14.03,8.12,21.09,12.11s14.75,8.31,22.17,12.39c6.85,3.77,13.72,7.49,20.63,11.12,5.34,2.8,10.69,5.57,16.15,8.13,2.95,1.38,6.12,3.14,9.36,3.71,1.83,.32,4.16-.39,4.07-2.7-.13-3.21-5.13-3.22-5,0-.03-.64,.46-1.52,1.11-1.91,.28-.17,.78-.25,.93-.27-.62,.06,.26,.08,.16,.04-.19-.06-.41-.08-.61-.13-.56-.15-1.11-.34-1.66-.54-.35-.13-.7-.27-1.05-.41-.18-.07-.36-.14-.53-.22-.32-.13-.77-.33-.11-.04-4.56-1.99-9.02-4.19-13.45-6.45-6.27-3.19-12.47-6.5-18.66-9.85-7.17-3.88-14.3-7.82-21.41-11.81s-14.25-8.04-21.34-12.11c-6.3-3.63-12.59-7.28-18.85-11-4.54-2.7-9.08-5.41-13.55-8.24-1.35-.85-2.7-1.71-4.01-2.63-.23-.16-.45-.32-.67-.48-.66-.47,.28,.27-.03-.02-.11-.1-.23-.22-.35-.3-.4-.29,.17,.24,.19,.28,.88,1.54-.39,3.52-2.09,3.63,.1,0,.21-.02,.31-.04,.4-.05,.79-.1,1.19-.14,1.51-.18,3.01-.37,4.52-.55,5.33-.65,10.66-1.28,16-1.9,7.47-.86,14.95-1.68,22.43-2.45,8.34-.86,16.7-1.66,25.06-2.36s16.2-1.28,24.32-1.68c6.58-.33,13.18-.57,19.76-.37,2.38,.07,4.74,.26,7.1,.5,.42,.04-.65-.1-.15-.02,.11,.02,.22,.03,.33,.05,.23,.03,.46,.07,.69,.11,.42,.07,.84,.16,1.26,.25,.35,.08,.7,.17,1.04,.28,.15,.05,.29,.1,.44,.15,.54,.18,.16,.17-.07-.04,.14,.13,.5,.27,.68,.36,.45,.21-.22-.19-.2-.17,.08,.07,.18,.14,.24,.23,.22,.29-.44-.65-.21-.26,.25,.42-.18-.51-.12-.32,.13,.45-.03-.44-.03-.37,0,.16-.04,.51,.04-.05,.09-.63-.12,.23-.19,.44-.23,.67,.14-.27,0,0-.09,.19-.17,.38-.26,.57-.44,.91-.95,1.8-1.47,2.67-3.42,5.68-7.49,11-11.52,16.26-.29,.38-.59,.77-.88,1.15-.4,.51-.51,.66-.73,.95-.66,.86-1.33,1.71-2,2.57-1.35,1.73-2.71,3.45-4.08,5.17-2.81,3.53-5.64,7.04-8.5,10.53-5.31,6.5-10.67,12.95-16.07,19.37-3.49,4.14-6.99,8.27-10.51,12.38-.49,.57-.98,1.15-1.48,1.72h3.54c-7.26-5.63-12.6-13.13-15.67-21.49s-4.16-17.01-4.14-26,1.03-16.86,2.74-25.31c1.38-6.82,3.19-13.55,5.36-20.15,.75-2.27,1.54-4.52,2.39-6.75,.24-.62,.48-1.24,.73-1.86,.12-.3,.57-1.35,.04-.11l-4.57-.6c4.41,13.45,9.88,26.56,16.32,39.17,7.1,13.88,15.38,27.14,24.64,39.68,5.78,7.83,11.92,15.39,18.37,22.68,2.14,2.41,5.66-1.13,3.54-3.54Z"/></g></g></svg>