<?xml version="1.0" encoding="UTF-8"?><svg id="Layer_2" xmlns="http://www.w3.org/2000/svg" viewBox="0 0 96.5 147.01"><defs><style>.cls-1{fill:#db7dea;}.cls-2{fill:#231f20;}</style></defs><g id="Layer_1-2"><g><path class="cls-1" d="M24.72,61.75C2.1,79.12-7.19,121.93,15.83,136.06c23.02,14.14,39.98-79.36,34.33-63.81s-4.24,60.78-4.24,64.82,7.47,15.55,37.56-2.22c30.09-17.77-13.93-75.93-13.93-75.93,0,0,27.87-51.7-1.82-56.14-29.68-4.44-18.94,39.26-18.94,37.89,0,0-4.68-48.79-27.3-25.17-22.62,23.63,3.23,46.24,3.23,46.24Z"/><path class="cls-2" d="M22.95,59.98c-7.34,5.68-12.98,13.54-16.82,21.94S-.11,99.69,0,109.03c.1,8.56,2.44,17.23,8.14,23.79,3.66,4.2,8.99,8.19,14.86,6.92,4.58-.99,8.06-4.8,10.71-8.41,3.45-4.69,5.94-10.05,8.17-15.4,4.58-10.99,7.89-22.61,10.29-34.26,.68-3.31,1.52-6.81,1.58-10.21,.03-1.88-1.09-4-3.38-3.37-1.55,.43-2.1,2.07-2.6,3.41-1.13,3.07-1.74,6.35-2.24,9.57-.65,4.21-1.08,8.45-1.4,12.69-.66,8.87-.85,17.78-.88,26.67-.01,5.39,.09,10.78,.15,16.18,.04,3.53,2.1,6.54,5.11,8.33,5.65,3.35,13.05,2.06,18.94,.17s11.21-4.58,16.42-7.6c3.29-1.91,6.15-4.25,8.35-7.37,3.8-5.39,4.69-12.33,4.08-18.76-.72-7.55-3.11-14.79-6.07-21.73-4.57-10.73-10.59-20.93-17.38-30.4-.38-.53-.77-1.07-1.16-1.59v2.52c2.51-4.65,4.61-9.56,6.5-14.49,3.26-8.49,6.16-17.88,5.65-27.07-.24-4.37-1.36-8.67-4.11-12.14S72.56,.97,68.12,.33c-4.87-.7-10.07-.46-14.35,2.21-3.58,2.23-5.92,5.74-7.37,9.64-2.69,7.26-2.31,15.53-1.25,23.07,.27,1.94,.53,3.98,1.12,5.86,.2,.64,.45,1.12,.99,1.55,1.61,1.29,4.03,.02,4.03-1.99,0-.41-.09-.84-.14-1.24-.8-6.51-2.08-13.07-4.44-19.21-2.59-6.73-7.4-14.86-15.82-13.5-4.99,.81-9.19,4.72-12.4,8.35-5.04,5.72-8.57,12.72-8.77,20.44-.26,10.04,5.02,19.65,11.88,26.68,.44,.45,.88,.9,1.35,1.31,1.01,.89,2.54,1,3.54,0,.91-.91,1.02-2.64,0-3.54-1.26-1.11-2.4-2.38-3.48-3.66-.24-.29-.48-.57-.71-.87-.12-.15-.25-.31-.37-.46,.3,.39-.07-.09-.17-.23-.55-.74-1.08-1.49-1.59-2.26-1.16-1.77-2.2-3.62-3.06-5.55-.75-1.67-1.55-4.14-1.97-6.29s-.53-4.66-.28-7.11c.6-5.84,3.9-11.43,7.93-15.77,.87-.93,1.77-1.83,2.72-2.67s1.13-.98,2.09-1.62c.75-.5,1.52-.92,2.33-1.31,.13-.06-.38,.13,.09-.04,.17-.06,.33-.12,.5-.18,.35-.12,.7-.22,1.06-.29,.16-.03,.32-.05,.48-.09,.42-.1-.56,0,.04,0,.33,0,.65-.04,.98-.02,.15,0,.29,.03,.44,.03,.43,0-.5-.13-.09-.01,.3,.08,.61,.12,.9,.21,.14,.04,.27,.1,.41,.13,.46,.12-.19-.1-.07-.04,.3,.15,.6,.29,.89,.46,.25,.15,.49,.32,.73,.48,.41,.26-.15-.13-.03-.03,.13,.11,.27,.22,.4,.34,.49,.43,.94,.9,1.36,1.4,.11,.12,.21,.25,.31,.37,.21,.25-.29-.39-.09-.12,.05,.07,.1,.13,.15,.2,.21,.3,.43,.6,.63,.9,.84,1.27,1.55,2.62,2.17,4.01,.08,.17,.15,.34,.23,.51,.2,.44-.14-.36,.04,.09,.15,.38,.31,.76,.45,1.14,.28,.74,.55,1.49,.8,2.25,.51,1.53,.95,3.07,1.35,4.63,.69,2.71,1.24,5.45,1.69,8.21,.08,.51,.16,1.03,.24,1.54,.03,.23,.06,.47,.1,.7,.04,.31-.08-.67,0,.04,.06,.48,.06,1.03,.18,1.5,.13,.52-.71,.68,.35-1.08l1.49-1.15h0c.64,.09,1.28,.17,1.93,.25-.08-.04,1.27,1.03,1.11,1.43,0-.02-.03-.07-.03-.09-.01-.1-.06-.2-.09-.3-.08-.34-.17-.68-.25-1.02-.26-1.16-.47-2.33-.65-3.5-.05-.35-.11-.7-.16-1.05-.05-.33-.06-.45,0,0-.03-.23-.06-.46-.09-.69-.11-.88-.2-1.76-.27-2.64-.16-1.95-.24-3.9-.22-5.86,.01-.99,.05-1.99,.12-2.98,.04-.52,.08-1.03,.14-1.55,.03-.26,.06-.51,.09-.77-.07,.57,.01-.07,.04-.29,.31-2,.77-3.98,1.49-5.88,.06-.16,.35-.85,.09-.26,.08-.2,.17-.39,.26-.59,.22-.47,.45-.92,.71-1.37,.22-.39,.46-.77,.71-1.14,.12-.17,.24-.34,.36-.51,.26-.36-.02,.03-.07,.08,.11-.14,.22-.28,.34-.41,.29-.34,.59-.66,.91-.97,.15-.14,.3-.29,.46-.42,.1-.09,.7-.57,.44-.37-.28,.21,.33-.23,.41-.28,.18-.12,.36-.23,.54-.34,.45-.28,.93-.51,1.4-.74,.32-.16-.41,.16-.07,.02,.12-.05,.24-.1,.36-.14,.22-.08,.43-.16,.65-.23,.55-.18,1.12-.32,1.69-.44,.25-.05,.49-.09,.74-.13,.48-.08,.09-.01-.01,0,.15-.02,.3-.04,.45-.05,.67-.06,1.33-.09,2-.1,2.6,0,4.73,.27,7.25,1.17,.13,.05,.89,.35,.39,.14,.25,.11,.5,.22,.75,.35,.47,.24,.94,.5,1.38,.78,.22,.14,.42,.29,.64,.43,.33,.23-.27-.25,.24,.19,.37,.33,.74,.66,1.08,1.01,.17,.18,.33,.36,.49,.55,.08,.09,.15,.19,.23,.28,0,0-.28-.37-.11-.15,.3,.42,.59,.84,.85,1.29,.23,.4,.43,.81,.63,1.22,.28,.55-.1-.33,.11,.25,.1,.26,.2,.53,.29,.79,.33,.97,.57,1.98,.75,2.99,.02,.1,.13,.79,.08,.45s.05,.47,.06,.57c.06,.55,.09,1.09,.12,1.64,.05,1.13,.04,2.27-.02,3.41-.03,.55-.07,1.1-.12,1.64-.03,.3-.06,.59-.09,.89-.02,.2-.11,.93-.09,.78,.03-.22-.06,.42-.08,.56-.05,.3-.09,.6-.14,.9-.1,.6-.21,1.21-.33,1.81-.24,1.21-.51,2.42-.81,3.62-.6,2.39-1.31,4.74-2.09,7.07-.74,2.19-1.54,4.36-2.4,6.5-.19,.47-.38,.93-.57,1.4-.09,.21-.17,.42-.26,.63-.18,.43,0,0,.03-.07-.07,.17-.15,.35-.22,.52-.36,.84-.73,1.68-1.1,2.51-.96,2.12-1.99,4.19-3.03,6.26-.05,.1-.11,.2-.16,.3-.39,.72-.54,1.82,0,2.52,4.92,6.5,9.24,13.56,13.1,20.73,3.44,6.39,6.18,12.28,8.33,19.07,1.03,3.24,1.84,6.54,2.34,9.9,.07,.45-.07-.6,.02,.13,.03,.23,.06,.45,.08,.68,.04,.38,.08,.75,.11,1.13,.07,.82,.11,1.63,.13,2.45,.03,1.51-.04,3.02-.21,4.52-.08,.7,.09-.53-.02,.17-.02,.14-.04,.28-.07,.41-.06,.38-.14,.75-.22,1.12-.16,.73-.35,1.46-.58,2.18-.11,.35-.24,.71-.37,1.06-.05,.13-.1,.25-.15,.38-.25,.63,.22-.47-.06,.15-.31,.68-.64,1.34-1.02,1.98-.9,1.54-1.18,1.89-2.34,3.11-.52,.55-1.08,1.06-1.66,1.55-.14,.12-.28,.24-.43,.35,.42-.34-.17,.12-.21,.15-.37,.27-.75,.53-1.14,.78-4.57,2.94-9.62,5.47-14.73,7.35-2.07,.76-4.19,1.41-6.35,1.87-.42,.09-.85,.17-1.27,.24-.16,.03-.33,.05-.49,.08-.05,0-.84,.11-.29,.04-.81,.1-1.62,.16-2.43,.18-.66,.02-1.32,0-1.97-.04-.17-.01-1.1-.12-.74-.07s-.57-.11-.75-.14c-.53-.11-1.05-.25-1.57-.43-.2-.07-.94-.41-.2-.06-.24-.12-.49-.22-.73-.35-.37-.2-.72-.42-1.07-.65-.1-.07-.19-.14-.29-.21,.02,.01,.48,.43,.23,.17-.15-.16-.34-.29-.5-.45-.13-.12-.25-.25-.37-.38-.08-.09-.53-.63-.2-.22s-.06-.08-.12-.18c-.1-.16-.2-.31-.3-.48-.08-.14-.15-.29-.23-.43-.29-.51,.08,.33,.05,.13-.04-.26-.18-.55-.25-.81-.03-.1-.02-.25-.07-.34-.09-.19,.02,.78,.05,.28,0-.21,0-.42-.01-.63-.02-1.84-.06-3.67-.09-5.51-.22-15.65-.31-31.54,1.78-47.08-.05,.38,.02-.17,.04-.26,.03-.22,.06-.43,.09-.65,.06-.43,.13-.85,.2-1.28,.14-.89,.3-1.78,.47-2.67,.31-1.58,.67-3.15,1.13-4.69,.17-.57,.36-1.14,.56-1.71,.05-.12,.1-.25,.14-.37,.23-.63,0,.18-.07,.16-.26-.07,1.28-1.52,.04-.28-.94,.94-2.9,.83-3.71-.53-.14-.23-.34-.68-.26-.95-.08,.28,.01,.74,0,1.04-.03,.56-.11,1.12-.17,1.69-.08,.66,.1-.64,0-.04-.03,.17-.05,.34-.07,.51-.06,.41-.13,.82-.19,1.23-1.69,10.28-4.47,20.47-7.85,30.32-2.03,5.92-3.81,10.51-6.63,15.93-1.2,2.32-2.52,4.59-4.03,6.72-.16,.23-.33,.45-.49,.68-.1,.13-.2,.26-.3,.4,.03-.04,.36-.45,.09-.12-.36,.45-.73,.9-1.11,1.34-.71,.81-1.46,1.57-2.28,2.27-.17,.15-.36,.29-.53,.43,.62-.52,.03-.03-.13,.09-.38,.27-.78,.53-1.19,.75-.26,.15-1.49,.64-.61,.33-.41,.14-.8,.3-1.23,.41-.21,.05-.41,.09-.62,.14-.7,.16,.55,0-.07,.01-.42,0-.84,.02-1.26,.01-.07,0-.16-.02-.23-.02-.45,.03,.64,.16,.2,.03-.19-.05-.39-.07-.58-.11-.44-.1-.86-.27-1.29-.41-.46-.14,.54,.3,.12,.05-.07-.04-.16-.07-.24-.11-.2-.11-.4-.2-.59-.31-.79-.45-1.56-.97-2.29-1.52-.41-.3,.44,.36-.24-.19-.21-.17-.42-.34-.62-.51-.34-.29-.67-.59-.99-.89-.7-.67-1.36-1.37-1.98-2.12-2.12-2.54-3.81-5.95-4.8-9.27-2.3-7.7-1.86-16.11,.05-23.95,2.05-8.41,5.82-16.56,11.11-23.35,2.55-3.28,5.5-6.25,8.78-8.79,1.07-.83,.87-2.67,0-3.54-1.06-1.06-2.46-.83-3.54,0Z"/></g></g></svg>