<?xml version="1.0" encoding="UTF-8"?><svg id="Layer_2" xmlns="http://www.w3.org/2000/svg" viewBox="0 0 214.21 144.66"><defs><style>.cls-1{fill:#6a6ef0;}.cls-2{fill:#231f20;}</style></defs><g id="Layer_1-2"><g><path class="cls-1" d="M93.57,4.15C67.04-5.69-3.79,81.21,2.96,112.27c0,.03,.01,.06,.02,.1,.85,3.83,3.5,7.02,7.02,8.75,19.18,9.45,31.15,16.17,37.86,20.17,3.67,2.19,8.4,.26,9.51-3.86,3.26-12.18,7.56-34.74-1.3-46.17-12.5-16.13-8.06-58.87,22.98-58.87s-4.84,44.76,5.65,61.29c10.48,16.53,31.86,27.02,53.63-15.32,21.78-42.34,31.15-45.61,34.28-41.53,6.4,8.35-40.91,51.52-30.62,71.27,15.35,29.46,36.67,.91,36.67,.91C242.67,15.44,193.98,4.15,193.98,4.15c0,0-22.58-9.27-45.16,16.53-4.96,5.67-8.34,10.48-10.86,14.69-6.09,10.17-6.17,14.31-11.74,21.53-3.45,4.47-10.45,13.55-15.71,12.57-12.26-2.29,21.74-50.98-16.94-65.33Z"/><path class="cls-2" d="M94.24,1.74c-5.48-2-11.58-.27-16.7,1.95-7.09,3.07-13.44,7.78-19.33,12.71-7.16,5.99-13.75,12.67-19.9,19.68-6.6,7.52-12.73,15.46-18.31,23.76-5.1,7.59-9.79,15.52-13.54,23.88-3.05,6.8-5.68,13.97-6.33,21.45-.27,3.16-.17,6.62,.97,9.61,1.25,3.28,3.52,6.04,6.52,7.88,1.66,1.02,3.5,1.79,5.24,2.66s3.64,1.83,5.46,2.75c9.55,4.86,18.9,10.02,28.2,15.33,2.83,1.62,6.28,1.74,9.13,.08s3.88-4.35,4.63-7.35c1.42-5.63,2.5-11.36,3.11-17.14,.64-6.16,.7-12.48-.61-18.56-.61-2.8-1.57-5.57-2.98-8.07-1.02-1.81-2.4-3.37-3.43-5.18-.45-.79-.85-1.6-1.22-2.42-.07-.15-.26-.59-.09-.19-.1-.23-.19-.47-.28-.7-.17-.44-.34-.89-.49-1.34-.66-1.92-1.16-3.89-1.52-5.88-.09-.51-.18-1.01-.25-1.52-.02-.13-.1-.7-.04-.29-.04-.32-.08-.64-.11-.96-.11-1.05-.19-2.11-.24-3.16-.09-2.19-.04-4.39,.15-6.58,.05-.54,.1-1.08,.17-1.62,.01-.12,.09-.72,.04-.33,.04-.29,.08-.58,.13-.87,.18-1.11,.39-2.22,.65-3.32,.5-2.13,1.14-4.23,1.95-6.27,.05-.11,.26-.63,.2-.5s.17-.38,.22-.49c.23-.52,.48-1.03,.74-1.54,.47-.93,.99-1.85,1.55-2.73,1.19-1.89,2.03-2.98,3.66-4.63,2.89-2.92,6.33-4.96,10.29-6.05,2.44-.67,4.23-.89,6.76-.93,1.11-.01,2.22,.04,3.32,.14,.12,.01,.23,.03,.35,.04-.1-.01-.48-.08,0,0,.21,.04,.43,.07,.64,.11,.47,.09,.93,.2,1.39,.34,.36,.11,.72,.24,1.07,.37,.42,.15-.36-.2,.14,.07,.18,.09,.36,.18,.54,.27,.31,.17,.6,.38,.91,.57,.41,.26-.1-.09,0,0,.13,.12,.28,.24,.41,.36,.24,.23,.45,.48,.68,.73,.04,.05-.27-.43,.02,.04,.09,.15,.19,.29,.29,.44,.17,.28,.31,.58,.46,.87,.2,.4-.15-.46-.01-.03,.06,.17,.12,.34,.18,.52,.11,.33,.19,.66,.27,1,.06,.26,.21,1.38,.13,.64,.08,.76,.13,1.52,.12,2.29,0,.86-.06,1.72-.15,2.57-.02,.2-.04,.4-.07,.6-.06,.5,0,0-.02,.14-.07,.48-.15,.97-.23,1.45-1.49,8.32-4.69,16.25-6.82,24.4-1.83,6.99-3.73,15.73,.43,22.28,3.95,6.21,9.49,11.83,16.55,14.33,8.05,2.86,16.26,.08,22.73-5,11.26-8.83,17.09-22.48,23.78-34.68,3.05-5.56,6.23-11.05,9.71-16.34,2.45-3.73,4.58-6.75,7.33-9.87,.95-1.08,1.95-2.12,3.02-3.09,.22-.2,.44-.39,.67-.58s.86-.64,.23-.2c.41-.29,.81-.59,1.24-.85,.35-.22,.72-.39,1.09-.59,.51-.28-.61,.18-.02,.01,.17-.05,.34-.12,.51-.16,.14-.04,.28-.06,.42-.1,.52-.15-.67-.02-.14,.02,.12,.01,.27,0,.4,0,.53-.03-.17,0-.23-.05,.07,.05,.26,.06,.35,.08,.53,.11-.1,.09-.2-.1,.01,.03,.91,.63,.35,.17-.45-.37,.14,.19,.28,.31,.37,.32-.41-.54-.12-.14,.39,.54-.01-.32,.03,0,.02,.16,.23,.79,.09,.26-.13-.49,0,.12,0,.32,0,.15-.06,.9,0,.39s-.07,.32-.11,.5c-.13,.55-.3,1.08-.49,1.6-.09,.23-.45,1.09-.15,.41-.15,.33-.3,.67-.45,1-3.36,7.04-8.35,13.36-12.78,19.74-5.27,7.58-10.61,15.27-14.51,23.67-3.16,6.81-5.99,15.09-2.75,22.39,2.32,5.22,6.36,10.63,11.48,13.37,4,2.14,8.61,2.5,12.94,1.19,6.37-1.93,11.91-6.64,16.06-11.74,.88-1.08,1.63-2.22,2.41-3.37,2.31-3.43,4.57-6.89,6.77-10.4,3.81-6.09,7.42-12.3,10.72-18.67,4.91-9.49,9.29-19.42,11.97-29.79,1.77-6.83,2.87-14.04,2.22-21.11-.46-4.97-1.72-9.87-4.24-14.2-1.87-3.22-4.38-5.96-7.35-8.19-1.91-1.44-4.02-2.56-6.25-3.41-.97-.37-2-.69-2.99-.98-7.28-2.07-15.36-1.46-22.47,.96-13.82,4.73-24.24,15.91-32.26,27.72-3.56,5.24-6.31,10.85-8.97,16.57-2.37,5.09-5.28,9.2-8.81,13.32-1.83,2.14-3.81,4.35-6.18,5.92-1.06,.7-1.69,1.08-2.9,1.3-.3,.05,.02,0,.06,0-.16,.01-.32,.01-.47,.01-.45,0,.07,.04-.13,0-.09-.02-.19-.05-.28-.07-.5-.11,.02-.1,.17,.1-.04-.05-.38-.24-.45-.25-.33-.06,.57,.37,.21,.16-.07-.04-.15-.14-.21-.2-.27-.32,.31,.57,.01,0-.04-.07-.08-.17-.13-.23-.25-.28,.14,.56,.07,.18-.03-.19-.12-.37-.17-.56-.03-.12-.04-.24-.07-.35-.12-.46,.01,.24,.02,.18,.04-.5-.08-1.04-.07-1.56,.01-.62,.06-1.24,.13-1.86,.02-.15,.04-.3,.05-.45,.04-.46-.08,.52,0,.05,.06-.37,.11-.74,.17-1.12,.26-1.58,.59-3.14,.93-4.7,.8-3.69,1.67-7.37,2.35-11.09,1.49-8.14,2.37-16.88-.25-24.9-1.32-4.04-3.5-7.75-6.49-10.78-3.58-3.63-8.09-6.09-12.83-7.87-1.26-.47-2.74,.53-3.08,1.75-.39,1.4,.48,2.6,1.75,3.08,4.5,1.69,8.43,4.05,11.54,7.57,.16,.18,.32,.36,.47,.55,.07,.09,.42,.52,.33,.4,.09,.12,.6,.83,.83,1.18,.55,.83,1.05,1.7,1.49,2.59,.1,.2,.2,.41,.3,.62,.04,.1,.28,.63,.2,.43-.07-.17,.16,.4,.21,.54,.09,.25,.19,.49,.27,.74,.32,.93,.6,1.87,.82,2.82s.41,1.93,.55,2.9c.04,.3,0-.06-.01-.1,.01,.11,.03,.23,.04,.34,.03,.27,.06,.53,.08,.8,.05,.5,.08,.99,.11,1.49,.12,2.04,.08,4.09-.06,6.13-.07,1.01-.16,2.01-.28,3.01-.03,.23-.05,.46-.08,.69-.02,.15-.09,.69-.03,.26-.07,.54-.15,1.07-.23,1.6-.3,1.95-.66,3.88-1.06,5.81-.72,3.51-1.57,6.99-2.27,10.5-.53,2.66-1.14,5.49-.91,8.22s1.27,5.06,3.9,6.02c4.93,1.8,9.93-2.77,13.03-6.01,3.87-4.05,7.58-8.68,10.2-13.64,2.82-5.34,5.03-10.91,8.19-16.08,3.75-6.13,8.25-11.93,13.33-17.01,4.6-4.59,9.94-8.58,15.98-11.07,2.36-.97,4.84-1.71,7.34-2.21,2.05-.41,3.74-.59,6.07-.63,.91-.01,1.82,0,2.72,.06,.38,.02,.76,.05,1.14,.09,.21,.02,.42,.04,.63,.07,.11,.01,.75,.1,.36,.04-.33-.05,.52,.08,.71,.11,.34,.06,.68,.12,1.02,.19,.52,.11,1.05,.23,1.56,.36,1.07,.28,2.18,.64,3.23,1.02,.17,.06,.34,.13,.5,.19,.76,.29-.45-.21,.02,0s.9,.41,1.34,.64c1.08,.56,2.11,1.2,3.09,1.91,.14,.1,.27,.21,.41,.31-.04-.03-.49-.4-.03-.02,.28,.23,.56,.46,.84,.7,.6,.52,1.17,1.08,1.71,1.66,.28,.3,.56,.61,.82,.93,.13,.15,.25,.3,.37,.45,.5,.61-.16-.24,.1,.13,.53,.75,1.06,1.49,1.52,2.28,.51,.85,.96,1.73,1.37,2.63,.06,.13,.11,.26,.17,.38,.2,.43-.12-.3-.06-.15,.09,.25,.2,.49,.29,.74,.2,.54,.39,1.08,.56,1.62,.36,1.13,.65,2.28,.88,3.44,.12,.62,.22,1.25,.32,1.88,.08,.51-.03-.23,0-.06,.02,.18,.04,.36,.06,.53,.04,.34,.07,.67,.1,1.01,.27,3.07,.2,6.17-.11,9.24-.04,.39-.08,.79-.13,1.18-.02,.2-.05,.4-.08,.6,.08-.61-.03,.2-.05,.35-.13,.91-.29,1.83-.46,2.73-.37,1.97-.81,3.92-1.32,5.86-2.68,10.18-6.93,19.76-11.8,29.06-3.32,6.35-6.95,12.55-10.77,18.61-2.17,3.46-4.41,6.87-6.7,10.25-.37,.55-.78,1.08-1.12,1.65-.19,.32,.39-.48,.27-.34-.19,.21-.36,.45-.54,.67-1.74,2.11-3.7,4.05-5.81,5.79-.16,.13-.32,.26-.48,.39-.36,.29-.05,.04-.15,.12-.4,.3-.79,.59-1.2,.87-.77,.53-1.57,1.03-2.39,1.49-.38,.21-.77,.42-1.17,.61-.23,.11-.46,.22-.7,.33-.03,.01-.37,.16-.11,.05s-.17,.07-.21,.08c-.89,.34-1.8,.64-2.73,.84-.21,.05-.43,.09-.65,.13-.17,.03-.81,.11-.32,.06-.48,.05-.95,.09-1.43,.09s-.97-.02-1.45-.05,.25,.06-.24-.02c-.27-.04-.53-.09-.79-.15-2.07-.46-3.78-1.35-5.38-2.71-2.28-1.92-4.07-4.31-5.59-6.86-.45-.75-.88-1.51-1.27-2.29-.09-.18-.18-.36-.27-.54-.26-.51,.09,.27-.05-.12-.25-.72-.47-1.43-.62-2.17-.03-.17-.06-.35-.09-.52-.08-.44,.03,.47-.01-.13-.03-.39-.07-.78-.08-1.18-.03-.81,0-1.63,.08-2.44,.02-.23,.05-.45,.07-.68,.02-.14-.07,.39,.02-.12,.08-.47,.16-.93,.26-1.39,.19-.9,.42-1.78,.69-2.66,1.21-4.02,2.71-7.12,4.8-10.96,4.43-8.12,9.84-15.67,15.13-23.24,2.33-3.34,4.66-6.68,6.81-10.14,1.63-2.63,3.24-5.39,4.22-8.35,.79-2.39,.97-5.09-.73-7.13-1-1.2-2.4-1.9-3.96-2.02-4.21-.33-8.02,3.49-10.6,6.31-6.76,7.37-11.93,16.29-16.79,24.96-6.82,12.15-12.27,25.87-22.99,35.25-3.07,2.69-6.55,4.8-10.42,5.69-.4,.09-.8,.17-1.21,.24-.1,.02-.2,.03-.3,.05-.37,.06,.44-.05,.07-.01-.23,.02-.46,.05-.69,.07-.84,.06-1.69,.07-2.53,.01-.38-.02-.76-.06-1.14-.11,.66,.08-.03-.01-.18-.04-.22-.04-.43-.08-.65-.13-.8-.17-1.59-.39-2.36-.66-.18-.06-.36-.13-.53-.19-.07-.03-.72-.29-.4-.16s-.23-.1-.31-.14c-.2-.09-.4-.19-.6-.29-.75-.37-1.47-.78-2.17-1.23-.36-.23-.71-.46-1.05-.7-.16-.11-.32-.23-.48-.34-.08-.06-.16-.12-.24-.18-.38-.28,.2,.16-.04-.03-.67-.54-1.33-1.1-1.96-1.69-1.28-1.2-2.47-2.5-3.57-3.87-.06-.07-.42-.53-.25-.31s-.25-.33-.3-.4c-.27-.36-.53-.72-.78-1.08-.48-.69-.97-1.4-1.39-2.14-.18-.32-.34-.66-.49-1,.27,.61-.13-.39-.2-.62-.24-.77-.41-1.56-.53-2.36,.1,.66-.04-.41-.05-.64-.03-.45-.05-.9-.06-1.36-.01-.88,.02-1.76,.09-2.64,.03-.42,.08-.84,.12-1.26,.01-.11,.1-.81,.06-.53-.03,.25,.06-.41,.08-.54,.15-.97,.33-1.93,.54-2.89,.43-2.03,.95-4.03,1.51-6.02,2.23-7.93,5.35-15.75,6.51-23.94,.47-3.36,.72-6.99-.5-10.22s-3.75-5.63-7.08-6.88c-4.22-1.58-9.23-1.34-13.59-.56s-8.75,2.77-12.36,5.61c-6.9,5.41-10.9,13.88-12.54,22.34-1.63,8.45-1.38,17.61,1.51,25.77,.67,1.9,1.48,3.78,2.48,5.54s2.35,3.29,3.35,5.05c2.68,4.67,3.38,10.4,3.42,15.79,.05,5.96-.72,11.91-1.88,17.74-.51,2.54-1.1,5.07-1.75,7.58-.6,2.3-1.86,3.84-4.15,3.83-1.66,0-3.52-1.52-5.04-2.4-1.88-1.09-3.76-2.16-5.66-3.21-5.2-2.89-10.46-5.68-15.75-8.41-3.48-1.8-6.98-3.56-10.49-5.31-2.97-1.47-5.85-2.75-7.58-5.73-.62-1.06-.99-2.18-1.23-3.38-.06-.28-.09-.57-.15-.85-.01-.06,.05,.54,0,0-.02-.17-.04-.35-.05-.52-.12-1.37-.12-2.76-.02-4.13,.03-.37,.06-.73,.09-1.1,.02-.17,.04-.34,.06-.52,.01-.11,.09-.74,.04-.36-.05,.4,.04-.27,.06-.37,.03-.18,.06-.36,.09-.53,.07-.42,.15-.85,.23-1.27,.33-1.66,.74-3.3,1.22-4.92,.52-1.76,1.11-3.51,1.76-5.23,.34-.91,.7-1.81,1.07-2.71,.09-.21,.17-.42,.26-.63-.18,.42,.11-.25,.16-.36,.2-.47,.41-.93,.61-1.39,3.68-8.23,8.28-16.04,13.28-23.53,5.46-8.17,11.19-15.62,17.65-23,6.1-6.97,12.62-13.61,19.71-19.58,3.18-2.67,5.82-4.72,9.4-7.09,2.88-1.91,5.88-3.65,9.05-5.05,.11-.05,.68-.29,.36-.16s.19-.08,.28-.11c.32-.13,.65-.26,.98-.38,.66-.24,1.32-.47,1.99-.67s1.33-.37,2-.52c.3-.07,.6-.13,.9-.18,.15-.03,.3-.05,.44-.07,.53-.09-.05,0,0,0,1.16-.12,2.32-.19,3.48-.09,.13,.01,.26,.03,.4,.04,.49,.03-.3-.05-.14-.02,.27,.06,.55,.09,.83,.15,.54,.12,1.07,.27,1.59,.46,1.27,.46,2.74-.52,3.08-1.75,.38-1.39-.47-2.61-1.75-3.08Z"/></g></g></svg>