<?xml version="1.0" encoding="UTF-8"?><svg id="Layer_2" xmlns="http://www.w3.org/2000/svg" viewBox="0 0 139.39 110.86"><defs><style>.cls-1{fill:#231f20;}.cls-2{fill:#85c7f2;}</style></defs><g id="Layer_1-2"><g><path class="cls-2" d="M73.07,48.69c.9,1.94,3.59,2.1,4.7,.28,7.63-12.48,29.44-34.84,40.42-32.01,12.72,3.27,19.74,16.73,18.53,25.44-1.81,13.03-53.04,61.86-77.76,65.04-13.71,1.77-33.79,2.91-38.15-15.62S5.91,46.75,3.36,37.67C.82,28.58,2.27-8.48,32.8,5.69c23.07,10.71,35.55,32.83,40.27,43Z"/><path class="cls-1" d="M70.91,49.96c1.17,2.19,3.8,3.33,6.19,2.54,2.1-.69,3.01-2.62,4.17-4.33,2.01-2.98,4.1-5.59,6.48-8.33,5.23-6.02,11.07-11.81,17.72-16.23,2.84-1.89,5.41-3.36,8.5-4.11,.31-.08,.63-.13,.95-.2,.59-.12-.26-.02,.46-.05,.3-.01,.59-.03,.89-.03,.19,0,1.24,.12,.56,0,1.76,.3,3.49,.97,5.06,1.8,3.41,1.78,6.34,4.45,8.47,7.62,1.97,2.92,3.4,6.29,3.87,9.58,.06,.44,.13,1.44,.14,2.11,0,.37,0,.74-.04,1.11-.01,.16-.03,.32-.04,.48-.04,.75,.08-.39,0,0-.15,.69-.35,1.34-.59,2-.22,.6,.23-.45-.02,.05-.09,.18-.17,.37-.26,.56-.21,.44-.44,.88-.68,1.31-.5,.91-1.05,1.79-1.62,2.66-.66,1-1.35,1.97-2.06,2.93-.21,.28-.42,.56-.63,.84-.09,.11-.17,.23-.26,.34,.28-.37,.05-.07,0,0-.46,.59-.93,1.17-1.4,1.75-1.96,2.41-4.02,4.74-6.14,7.01-9.99,10.76-21.18,20.68-33.05,29.16-5.52,3.94-11.26,7.64-17.37,10.59-.64,.31-1.29,.61-1.94,.9-.28,.13-.57,.25-.85,.37,.38-.16-.6,.24-.76,.31-1.22,.49-2.46,.93-3.72,1.31-1.17,.35-2.36,.65-3.56,.86-.13,.02-.94,.15-.55,.09,.35-.05-.67,.08-.86,.11-.87,.11-1.75,.21-2.62,.3-3.48,.36-6.98,.58-10.48,.46s-6.49-.47-9.9-1.6c-2.88-.96-5.6-2.54-7.74-4.92-2.38-2.64-3.49-6.17-4.39-9.79-4.17-16.82-10.74-32.88-16.07-49.33-.6-1.85-1.12-3.66-1.46-5.57-.07-.38,.07,.62,0-.02-.02-.24-.05-.48-.08-.72-.05-.49-.09-.97-.12-1.46-.06-1.04-.09-2.09-.08-3.14,0-1.18,.06-2.35,.15-3.52,.05-.58,.1-1.16,.17-1.74,.02-.14,.12-.96,.08-.64-.06,.41,.03-.23,.04-.26,.03-.2,.06-.39,.09-.59,.39-2.44,.98-4.85,1.84-7.17,.11-.31,.24-.62,.36-.92,.04-.11,.19-.44-.02,.05,.05-.12,.1-.24,.16-.36,.28-.59,.56-1.17,.87-1.74,.28-.5,.57-1,.89-1.48,.16-.24,.32-.47,.48-.7,.09-.13,.19-.25,.28-.38-.25,.33-.09,.11,.08-.08,.36-.43,.73-.85,1.13-1.24,.18-.17,.36-.34,.54-.51,.11-.1,.23-.2,.35-.3,.05-.05,.54-.44,.25-.21-.25,.19,.39-.28,.5-.35,.23-.16,.47-.31,.71-.45s.49-.28,.74-.41c.17-.09,1-.46,.44-.23,.54-.23,1.1-.41,1.67-.57,.33-.09,.65-.17,.98-.23,.19-.04,1.15-.18,.57-.11,1.44-.17,2.9-.15,4.34,0,.07,0,.49,.06,.08,0,.17,.02,.34,.05,.51,.08,.44,.07,.87,.16,1.3,.25,.88,.19,1.75,.43,2.6,.7,1.87,.59,3.66,1.34,5.42,2.2,15.05,7.32,26.65,20.21,34.75,34.66,1.27,2.27,2.46,4.58,3.55,6.94,.57,1.22,2.33,1.53,3.42,.9,1.26-.73,1.47-2.19,.9-3.42-6.51-13.98-16.1-26.79-28.4-36.16C36.58,3.47,18.15-6.53,7.3,5.78,3.76,9.8,1.85,15.01,.89,20.22,.02,24.93-.28,29.83,.29,34.6c.64,5.33,2.79,10.43,4.56,15.46,3.13,8.93,6.32,17.85,9.17,26.87,1.42,4.49,2.76,9.01,3.9,13.58,1.06,4.24,2.33,8.16,5.13,11.6,4.77,5.87,12.4,8.06,19.67,8.61,3.66,.27,7.33,.13,10.98-.19,3.07-.27,6.21-.55,9.2-1.32,5.94-1.53,11.55-4.43,16.79-7.54,13.21-7.83,25.27-17.84,36.3-28.48,4.91-4.73,9.66-9.67,14-14.94,3.19-3.87,6.44-7.98,8.37-12.65,2.34-5.68,.32-12.54-2.56-17.63-2.15-3.81-5.14-7.1-8.71-9.61-3.1-2.18-7.16-4.17-11.03-4.13-3.25,.03-6.4,1.28-9.24,2.76-3.54,1.85-6.79,4.26-9.87,6.79-6.51,5.35-12.32,11.59-17.42,18.29-1.05,1.37-2.06,2.78-3,4.22-.25,.39-.7,1.24-.84,1.4-.33,.36-.2,.17-.12,.08,0,0-.28-.15-.1,0-.04-.04-.08-.03-.23-.31-1.51-2.84-5.83-.32-4.32,2.52Z"/></g></g></svg>