<?xml version="1.0" encoding="UTF-8"?><svg id="Layer_2" xmlns="http://www.w3.org/2000/svg" viewBox="0 0 135.75 181.17"><defs><style>.cls-1{fill:#231f20;}.cls-2{fill:#9665ef;}</style></defs><g id="Layer_1-2"><g><path class="cls-2" d="M87.92,2.54s46.91,.71,45.26,39.37-27.34,49.03-44.08,26.4c-16.74-22.63-18.39-35.83-33.94-28.99-15.56,6.84-37.95,66.24,11.31,75.9,49.27,9.66-34.89,88.07-46.67,55.63C-43.67-3.91,87.92,2.54,87.92,2.54Z"/><path class="cls-1" d="M87.92,5.04c1.93,.03,3.85,.26,5.76,.49,.36,.04-.65-.1,.08,.01,.21,.03,.42,.06,.63,.09,.54,.08,1.09,.17,1.63,.26,1.05,.18,2.1,.39,3.15,.62,2.4,.53,4.77,1.18,7.1,1.97,.63,.22,1.26,.44,1.88,.68,.28,.11,.57,.22,.85,.33,.16,.06,1.16,.48,.63,.26,1.28,.55,2.54,1.15,3.77,1.8s2.48,1.39,3.67,2.18c.57,.38,1.13,.77,1.68,1.18,.15,.11,.29,.22,.43,.33-.37-.28-.06-.05,0,.01,.34,.27,.68,.55,1.01,.83,1.12,.96,2.18,1.98,3.16,3.08,1.14,1.27,1.5,1.72,2.45,3.17,1.87,2.84,2.9,5.17,3.76,8.34,1,3.66,1.28,7,1.14,10.91-.17,4.89-.79,9.78-2.02,14.52-1.79,6.95-4.81,13.46-10.28,17.98-.57,.47,.39-.28-.2,.16-.12,.09-.24,.18-.36,.26-.3,.21-.6,.42-.91,.61-.6,.38-1.22,.73-1.86,1.05-.12,.06-1.08,.48-.55,.26-.32,.13-.64,.25-.97,.36-.64,.22-1.3,.41-1.97,.55-.33,.07-.66,.13-1,.18-.12,.02-.49,.05,.06,0-.17,.02-.34,.04-.5,.05-.71,.06-1.42,.08-2.13,.05-.34-.01-.68-.04-1.02-.07-.14-.01-.27-.03-.41-.04,.56,.06,.09,.01-.06-.01-.73-.13-1.45-.28-2.16-.48-2.48-.7-5.32-2.28-7.33-3.91-3.27-2.67-5.66-5.84-8.05-9.22-3.14-4.44-6.06-9.03-9-13.61-2.14-3.35-4.29-6.76-6.93-9.75-1.98-2.25-4.4-4.21-7.31-5.06-3.09-.9-6.42-.39-9.39,.68-9.29,3.34-14.58,13.08-18.04,21.76-4.29,10.76-6.15,23.35-2.82,34.63,1.73,5.87,4.97,11.28,9.54,15.38,5.47,4.91,12.38,7.89,19.51,9.45,1.5,.33,3,.61,4.47,1.04,.6,.18,1.2,.38,1.8,.59,.25,.09,.5,.19,.76,.29,.35,.14-.56-.25-.03-.01,.16,.07,.31,.14,.47,.21,.97,.45,1.91,.97,2.79,1.58,.2,.14,.4,.29,.6,.44-.46-.34-.12-.09,.12,.11,.37,.32,.73,.65,1.07,1.01,.28,.29,.53,.61,.79,.92-.53-.63-.04-.04,.08,.13,.15,.22,.29,.43,.42,.66,.2,.33,.37,.68,.54,1.02,.32,.65-.01-.11,.05,.11s.17,.44,.24,.66c.13,.39,.24,.78,.33,1.18,.05,.21,.09,.42,.13,.64,.06,.36,.07,.73,.03,.11,.06,.9,.13,1.79,.09,2.69-.02,.47-.08,.93-.12,1.4-.03,.36,.11-.61-.02,.12-.05,.26-.09,.53-.14,.79-.19,1-.45,1.98-.76,2.95-.15,.48-.32,.96-.49,1.43-.08,.23-.17,.46-.26,.68-.06,.15-.12,.3-.18,.46-.19,.46,.21-.48,0,.01-.46,1.05-.95,2.08-1.49,3.09-1.13,2.14-2.42,4.19-3.81,6.16-.35,.5-.71,.99-1.07,1.48-.19,.26-.39,.52-.58,.77-.07,.09-.29,.37,.03-.04-.12,.15-.24,.31-.36,.46-.82,1.04-1.67,2.05-2.54,3.05-3.56,4.07-7.51,7.82-11.75,11.18-.24,.19-.47,.37-.71,.56-.32,.25,.47-.36-.05,.04-.11,.08-.21,.16-.32,.24-.58,.44-1.17,.87-1.76,1.3-1.03,.74-2.08,1.45-3.14,2.14-2.05,1.33-4.17,2.55-6.36,3.64-.53,.26-1.05,.51-1.59,.75-.24,.11-.47,.21-.71,.31-.14,.06-.54,.23,.05-.02-.16,.07-.31,.13-.47,.19-1.01,.41-2.03,.78-3.07,1.11-.97,.3-1.96,.56-2.96,.77-.43,.09-.86,.15-1.29,.23-.52,.1,.63-.06,.1-.01-.09,0-.19,.02-.28,.03-.28,.03-.55,.06-.83,.08-.88,.06-1.76,.07-2.64,0-.17-.01-.34-.04-.5-.05-.49-.03,.64,.13,.17,.02-.08-.02-.16-.02-.24-.04-.42-.09-.84-.17-1.25-.28-.36-.1-.71-.27-1.07-.36-.22-.06,.57,.29-.05-.03-.17-.09-.35-.17-.52-.27-.35-.19-.67-.41-1-.62-.07-.04-.12-.1-.19-.14-.39-.24,.45,.43,.13,.1-.14-.14-.31-.26-.45-.39-.3-.28-.57-.58-.85-.88-.34-.36-.16-.2-.04-.03-.14-.19-.28-.38-.41-.58-.25-.37-.47-.76-.68-1.15-.1-.19-.19-.37-.28-.56-.34-.69,.1,.36-.12-.26-1.74-4.91-3.48-9.81-5.07-14.76-2.93-9.17-5.51-18.45-7.57-27.86-3.25-14.84-5.22-29.78-4.63-45.06,.12-3.13,.35-6.26,.72-9.38,.04-.37,.09-.75,.14-1.12,.02-.15,.04-.3,.06-.44-.07,.52,0,.02,.02-.11,.11-.76,.22-1.52,.34-2.28,.23-1.41,.48-2.81,.77-4.21,1.04-5.08,2.49-10.08,4.41-14.89,.11-.28,.23-.57,.35-.85,.27-.67-.12,.25,.17-.41,.24-.55,.48-1.1,.73-1.65,.49-1.07,1.01-2.13,1.55-3.18,1.04-2.02,2.18-3.98,3.42-5.89,.58-.9,1.18-1.78,1.8-2.65,.3-.42,.6-.83,.91-1.24,.16-.21,.32-.43,.49-.64,.26-.34-.06,.08-.1,.13,.11-.15,.23-.29,.34-.44,1.28-1.62,2.63-3.17,4.05-4.67s2.85-2.86,4.36-4.2c.74-.65,1.49-1.29,2.26-1.91,.34-.28,.69-.55,1.03-.82,.42-.33-.47,.36-.04,.03,.08-.06,.15-.12,.23-.18,.23-.17,.46-.35,.7-.52,2.98-2.21,6.13-4.18,9.4-5.92,1.59-.85,3.2-1.64,4.84-2.38,.38-.17,.76-.34,1.15-.51,.18-.08,.36-.15,.54-.23,.46-.2-.58,.24-.11,.05,.12-.05,.24-.1,.36-.15,.8-.33,1.6-.65,2.41-.95,3.03-1.15,6.12-2.13,9.25-2.96,2.85-.76,5.73-1.39,8.64-1.89,1.28-.22,2.57-.41,3.86-.6,.49-.07-.71,.09-.15,.02,.15-.02,.31-.04,.46-.06,.3-.04,.6-.08,.9-.11,.58-.07,1.15-.13,1.73-.19,3.18-.32,6.37-.52,9.57-.49,.43,0,.86,0,1.29,.03,3.22,.16,3.21-4.84,0-5-1.79-.09-3.6-.02-5.4,.06-4.76,.22-9.51,.79-14.19,1.63-6.22,1.13-12.35,2.81-18.24,5.12-7.08,2.78-13.82,6.38-19.86,11.02-6.9,5.29-12.81,11.71-17.41,19.1-5.41,8.69-8.9,18.51-10.8,28.54-2.53,13.37-2.49,27.1-.99,40.58,2.05,18.44,6.62,36.52,12.42,54.11,1.45,4.41,2.74,9.05,4.73,13.25,.81,1.71,1.99,3.32,3.45,4.54,3,2.49,6.86,3.4,10.7,3.13,9.81-.7,18.92-6.56,26.45-12.45,8.33-6.53,16.01-14.64,21.09-23.98,3.87-7.12,6.89-16.87,1.5-24.06-2.96-3.94-7.51-6.15-12.19-7.35-3.62-.92-7.23-1.57-10.73-2.93-1.37-.53-3.07-1.33-4.59-2.19-.69-.39-1.37-.8-2.03-1.24-.34-.22-.68-.45-1.01-.69-.16-.12-.32-.24-.49-.35-.45-.32-.02,0-.34-.26-1.2-.96-2.34-2-3.38-3.13-1.21-1.3-1.59-1.79-2.49-3.13-.8-1.19-1.52-2.45-2.14-3.74-.16-.32-.3-.65-.45-.97-.29-.63,.12,.3-.04-.09-.07-.16-.14-.33-.2-.5-.26-.66-.5-1.33-.72-2.01-.45-1.39-.81-2.82-1.09-4.25-.13-.67-.24-1.34-.33-2.02,.08,.59-.05-.46-.07-.62-.05-.43-.09-.86-.12-1.29-.22-2.91-.16-5.83,.14-8.73,.04-.36,.08-.73,.12-1.09,.02-.15,.04-.29,.06-.44-.08,.6,.02-.13,.03-.21,.11-.72,.23-1.45,.36-2.17,.26-1.43,.58-2.85,.95-4.26,.73-2.82,1.67-5.58,2.76-8.28,.05-.13,.11-.26,.16-.38-.2,.49-.02,.06,.03-.07,.12-.28,.24-.56,.37-.84,.3-.67,.62-1.34,.94-2.01,.57-1.16,1.18-2.3,1.83-3.42,.61-1.05,1.26-2.09,1.95-3.09,.33-.48,.67-.94,1.01-1.41,.42-.57-.22,.26,.22-.29,.17-.21,.34-.43,.51-.63,.67-.81,1.38-1.58,2.13-2.31,.32-.31,.65-.61,.99-.9,.17-.15,.35-.28,.52-.43,.36-.32-.41,.3-.14,.11,.12-.09,.24-.18,.36-.27,1.99-1.41,4.11-2.14,6.54-2.59-.01,0,.72-.1,.33-.06s.32-.02,.32-.02c.35-.02,.69-.04,1.04-.03,.3,0,.6,.03,.9,.05,.4,.03-.61-.12,0,0,.19,.04,.38,.07,.56,.11,.31,.07,.61,.17,.91,.26,.67,.21-.18-.13,.45,.18,.59,.3,1.14,.63,1.67,1.01s-.39-.33,.14,.11c.11,.09,.22,.18,.32,.27,.27,.23,.54,.48,.8,.73,.58,.57,1.13,1.17,1.66,1.79,.61,.72,.81,.99,1.28,1.63,.62,.85,1.22,1.71,1.81,2.59,2.69,4,5.2,8.12,7.86,12.14,2.9,4.38,5.82,8.92,9.42,12.76,4.58,4.9,10.68,8.65,17.51,8.98,15.62,.76,24.02-15.85,26.53-28.92,1.65-8.57,2.31-17.91-.55-26.31-2.11-6.18-5.96-11.6-11.07-15.67C114.37,5.08,103.88,1.84,93.42,.5c-1.82-.23-3.66-.43-5.5-.46-3.22-.05-3.22,4.95,0,5Z"/></g></g></svg>