<?xml version="1.0" encoding="UTF-8"?><svg id="Layer_2" xmlns="http://www.w3.org/2000/svg" viewBox="0 0 113.78 123.95"><defs><style>.cls-1{fill:#ebee9b;}.cls-2{fill:#231f20;}</style></defs><g id="Layer_1-2"><g><path class="cls-1" d="M38.89,118.09c-2.46,8.72-23.5-.81-34.04-13.37C-5.69,92.16,21.87,21.25,44.96,7.07c23.1-14.18,59.97,8.51,65.24,16.2,5.27,7.69-9.32,18.65-20.67,17.43-11.35-1.22-26.39-18.76-42.14-17.42-11.63,.99-6,18.22-4.5,30.64s-3.04,60.76-4.01,64.17Z"/><path class="cls-2" d="M36.48,117.43c-.21,.69,.19-.23-.14,.37-.1,.19-.51,.67-.06,.17-.16,.18-.33,.34-.51,.51-.24,.22,.52-.28,.05-.06-.14,.07-.29,.16-.43,.24-.31,.19,.44-.09-.19,.06-.26,.06-.53,.13-.79,.19-.38,.09,.63-.04,0,0-.13,0-.26,.02-.4,.03-.35,.02-.7,.02-1.04,0s-.67-.04-1-.08c-.45-.05,.6,.11-.15-.02-.16-.03-.32-.05-.48-.08-.81-.15-1.61-.35-2.39-.58-1.7-.5-3.23-1.11-4.77-1.84-3.67-1.75-7.2-3.94-10.38-6.47-1.63-1.3-3.2-2.69-4.67-4.18-.72-.72-1.41-1.47-2.08-2.24-.26-.3-.68-.93-.28-.3-.1-.16-.21-.3-.31-.46-.19-.3-.33-.62-.5-.93-.25-.47,.19,.57,0-.03-.07-.21-.15-.41-.21-.61-.12-.39-.23-.79-.32-1.2-.04-.19-.08-.38-.11-.57-.02-.13-.16-1-.1-.56s-.04-.33-.05-.45c-.02-.22-.04-.43-.06-.65-.04-.57-.06-1.14-.07-1.71-.02-1.13,.02-2.25,.1-3.38,.04-.61,.09-1.22,.15-1.82,.03-.31,.07-.63,.1-.94,.02-.18,.04-.35,.06-.53,.02-.12,.1-.77,.02-.2,.19-1.36,.42-2.71,.67-4.06,.58-3.06,1.32-6.1,2.15-9.11,3.81-13.81,9.31-26.97,16.21-39.5,1.67-3.03,3.43-6.01,5.3-8.92,.92-1.43,1.87-2.85,2.86-4.24,.43-.6,.86-1.2,1.29-1.79,.51-.69,.88-1.18,1.22-1.6,1.78-2.24,3.66-4.41,5.71-6.41,.91-.89,1.87-1.73,2.85-2.53,.1-.08,.2-.16,.31-.24,.31-.25-.47,.35,.03-.02,.2-.15,.41-.3,.61-.45,.5-.35,1-.69,1.52-1.01,12.87-7.92,29.91-3.59,42.77,2.44,3.18,1.49,6.28,3.16,9.26,5.02,1.3,.81,2.57,1.65,3.81,2.54,.52,.37,1.03,.75,1.53,1.13,.55,.42-.24-.19,.08,.06,.13,.11,.27,.21,.4,.32,.26,.21,.51,.42,.76,.63,.79,.66,1.55,1.35,2.27,2.09,.29,.3,.55,.61,.83,.93,.42,.47-.24-.43,0,.01,.19,.33,.42,.64,.59,.99-.19-.38,.11,.35,.16,.5s.07,.3,.1,.44c-.1-.49,0-.02,0,.12,0,.34,.01,.68-.03,1.02,.06-.47-.13,.5-.2,.71-.34,1.11-1.2,2.42-2.16,3.46-2.51,2.7-5.87,4.64-9.42,5.74-1.86,.57-3.65,.92-5.58,.93-.95,0-1.68-.05-2.18-.14-.76-.14-1.5-.34-2.24-.58-3.3-1.07-6.59-3.1-9.71-5.03-3.68-2.27-7.31-4.65-11.13-6.7s-7.87-3.86-12.15-4.65c-3.68-.68-8.22-1.05-11.54,1.06-6.25,3.97-4.93,13.11-4.04,19.3s2.18,11.87,2.25,18.04c.07,6.26-.25,12.52-.62,18.76-.72,12.16-1.62,24.36-3.15,36.44-.03,.2-.05,.4-.08,.6,.02-.14,.07-.51,0,0-.04,.3-.09,.61-.13,.91-.06,.38-.12,.76-.22,1.12-.85,3.11,3.97,4.43,4.82,1.33,.35-1.27,.44-2.66,.61-3.96,.29-2.28,.53-4.57,.77-6.85,.68-6.66,1.25-13.33,1.75-20.01,.52-7.08,.97-14.17,1.18-21.27,.16-5.6,.12-11.08-.75-16.63-.61-3.94-1.43-7.96-1.85-11.83-.38-3.44-.65-6.79,.5-9.77,.15-.39-.27,.5,.06-.11,.07-.13,.13-.26,.2-.38,.08-.15,.52-.79,.39-.62s.39-.39,.51-.51c.46-.46-.26,.16,.07-.07,.18-.12,.36-.24,.54-.35,.16-.09,.32-.18,.49-.25-.1,.05-.42,.15,.04,0,.35-.12,.7-.21,1.06-.29,.09-.02,.63-.1,.25-.05,.2-.03,.41-.04,.61-.05,.61-.04,1.22-.05,1.83-.04,4.08,.08,8.07,1.48,11.72,3.25,7.75,3.75,14.49,9.41,22.46,12.71,7.69,3.18,16.46,1.16,23.01-3.71,3-2.23,5.96-5.26,6.8-9.03,.72-3.22-.31-6.12-2.46-8.53-3.75-4.21-8.96-7.38-13.83-10.1-6.9-3.86-14.36-6.95-22.07-8.74s-16.36-2.35-24.18,.07c-12.54,3.88-20.76,15.49-27.29,26.19-7.81,12.78-13.98,26.74-18.52,41-1.95,6.12-3.6,12.37-4.51,18.73-.67,4.73-1.19,9.84,.11,14.51,.64,2.27,1.8,3.96,3.38,5.69,3.02,3.33,6.53,6.22,10.25,8.74,3.48,2.37,7.23,4.38,11.18,5.85,3.11,1.15,6.53,1.97,9.84,1.44,2.81-.45,5.02-2.29,5.84-5.03,.93-3.09-3.89-4.41-4.82-1.33Z"/></g></g></svg>