<?xml version="1.0" encoding="UTF-8"?><svg id="Layer_2" xmlns="http://www.w3.org/2000/svg" viewBox="0 0 87.89 101.64"><defs><style>.cls-1{fill:#231f20;}.cls-2{fill:#85c7f2;}</style></defs><g id="Layer_1-2"><g><path class="cls-2" d="M64.78,85.48c7.04,5.53-6.95-9.57-12.79-33.68-5.57-22.98,1.59-47.7-4.77-49.29S17.91,103.13,26.77,99.04c8.86-4.09,57.7-75.19,58.61-80.19,.91-5-45.59,7.95-60.61,6.13-15.03-1.82-21.39-5.45-22.3,.45s31.94,26.82,38.16,34.53c6.66,8.24,24.15,25.51,24.15,25.51Z"/><path class="cls-1" d="M63.01,87.24c1.19,.93,2.59,2.22,4.25,1.78,2.28-.6,2.14-2.91,1.37-4.59-1.57-3.42-3.67-6.61-5.39-9.96-3.11-6.07-5.73-12.38-7.66-18.94-2.33-7.92-3.27-15.99-3.38-24.23-.09-6.69,.43-13.37,.35-20.06-.05-3.62-.07-9.79-4.43-11.09s-6.46,5.49-7.59,8.38c-2.5,6.39-4.35,13.04-6.13,19.65-2.29,8.54-4.33,17.15-6.16,25.8-1.74,8.18-3.32,16.4-4.52,24.67-.81,5.6-1.84,11.52-1.38,17.2,.14,1.71,.38,3.65,1.7,4.89,1.93,1.82,4.23,.47,5.91-.88,1.86-1.5,3.49-3.3,5.07-5.08,2.42-2.72,4.71-5.54,6.97-8.4,5.89-7.44,11.52-15.08,17.04-22.79s11.07-15.69,16.41-23.68c3.66-5.47,7.37-10.96,10.6-16.69,.76-1.34,1.88-2.99,1.85-4.59-.06-3.3-3.99-3.53-6.42-3.44-3.9,.15-7.79,.83-11.63,1.46-4.99,.82-9.96,1.74-14.94,2.61-2.65,.47-5.31,.92-7.97,1.35-1.3,.21-2.6,.41-3.91,.61-.59,.09-1.18,.17-1.78,.26-.31,.04-.63,.09-.94,.13-.5,.07-.17,.02-.67,.09-4.22,.55-8.5,1.06-12.76,.91-5.68-.2-11.24-1.79-16.85-2.6-1.98-.29-4.18-.63-6.13,.03S.63,22.27,.15,24.26c-.81,3.36,1.69,6.13,3.86,8.38,3.15,3.27,6.74,6.13,10.29,8.95,4.19,3.34,8.63,6.7,12.69,9.85,3.41,2.65,6.87,5.3,9.99,8.3,1.23,1.18,2.27,2.49,3.37,3.79,1.72,2.01,3.5,3.96,5.3,5.9,3.84,4.14,7.78,8.18,11.75,12.2,1.86,1.88,3.73,3.76,5.61,5.62,2.29,2.26,5.83-1.27,3.54-3.54-5.68-5.61-11.28-11.31-16.73-17.14-1.75-1.88-3.49-3.77-5.18-5.71-1.16-1.33-2.22-2.74-3.46-4-2.77-2.82-5.95-5.26-9.05-7.7-7.68-6.04-15.61-11.56-22.8-18.31-1.24-1.16-2.41-2.37-3.5-3.68-.03-.04,.26,.38-.03-.04-.08-.12-.17-.23-.25-.35-.17-.25-.32-.51-.47-.77-.06-.1-.09-.22-.16-.31-.17-.25,.12,.57,.07,.15,0-.03-.1-.27-.08-.28,0,0-.03-.13-.03-.13-.16-.26,.06,.5,.05,.36-.05-.61-.18,.48,.03-.21,.04-.14,.12-.32,.13-.47,.02-.28-.28,.37,.04-.07,.23-.32,.11-.11-.09,.07,.09-.08,.16-.22,.27-.28,.36-.19-.49,.32-.04,.05,.42-.25-.41,.05-.05,0,.14-.02,.35-.09,.48-.13,.44-.17-.19,0-.06,0,.41-.02,.82-.05,1.23-.04,.45,.01,.89,.05,1.33,.1,.15,.01,.67,.08,.25,.02,.33,.04,.66,.1,.99,.15,5.72,.91,11.44,2.42,17.25,2.66,4.01,.16,8.05-.28,12.03-.78,10.04-1.26,19.97-3.23,29.94-4.93,2.11-.36,4.22-.71,6.34-1.02,.47-.07,.93-.13,1.4-.2-.45,.06-.05,0,.16-.02,.27-.03,.53-.07,.8-.1,.79-.1,1.58-.18,2.37-.25,1.25-.11,2.49-.15,3.74-.09,.7,.03-.5-.17,.05,0,.07,.02,.47,.16,.52,.14,.05-.03-.61-.29-.36-.15,.23,.13,.25,.28-.3-.25,.25,.24-.26-.37-.26-.36,.18,.3-.2-.53-.16-.41-.06-.22-.1-.84,0-.96-.05,.06-.03,.19-.08,.26-.39,.58,.32-.64-.07,.16-.35,.71-.72,1.41-1.11,2.1-1.28,2.27-2.67,4.48-4.06,6.68-4.3,6.78-8.81,13.44-13.37,20.06-5.38,7.79-10.86,15.52-16.49,23.13-4.91,6.64-9.3,12.49-14.7,18.8-1.72,2.02-3.48,4.03-5.43,5.84-.34,.32-.7,.63-1.05,.93-.44,.38-.16,.1-.02,.02-.16,.09-.3,.22-.45,.31-.11,.07-.24,.14-.35,.21-.47,.31,.06-.02,.2-.06-.47,.14,.29-.02,.37-.02-.45,0,.72,.16,.38,.06-.18-.05,.74,.38,.36,.14,.21,.13,.6,.53,.28,.18,.18,.2,.44,.63,.2,.22-.26-.44,.15,.59,.09,.24-.05-.28-.17-.56-.23-.84-.03-.16-.04-.33-.08-.49-.09-.33,.06,.69,.05,.34,0-.12-.03-.23-.04-.35-.18-2.13-.08-4.28,.07-6.41,.1-1.41,.24-2.82,.4-4.23,.09-.8,.18-1.59,.28-2.38,.05-.4,.1-.8,.16-1.2-.06,.44-.02,.18,.01-.09s.07-.51,.11-.76c.52-3.72,1.13-7.42,1.8-11.11,1.5-8.35,3.24-16.66,5.17-24.92,1.82-7.83,3.8-15.63,6.07-23.34,.91-3.07,1.86-6.12,2.93-9.14,.43-1.2,.87-2.39,1.35-3.57,.06-.14,.12-.28,.17-.42,.16-.4-.23,.52-.06,.14,.11-.25,.22-.51,.33-.76,.2-.44,.4-.87,.62-1.3,.33-.66,.79-1.25,1.12-1.9,0,0-.49,.52-.1,.14,.08-.08,.19-.18,.26-.27,.28-.38-.44,.31-.24,.18,.41-.25-.32,.11-.32,.12,.39-.11-.74,.05-.44,.05,.32,0-.67-.1-.53-.07,.38,.08,.15,.06-.12-.08,.66,.34-.21-.32,.23,.17,.32,.36-.14-.37-.03-.03,.05,.14,.17,.31,.24,.45,.06,.1-.15-.48-.01-.01,.06,.19,.13,.38,.18,.57,.12,.43,.2,.88,.28,1.32,.09,.48-.03-.32,.03,.19,.03,.27,.06,.53,.08,.8,.04,.54,.07,1.08,.09,1.62,.23,6.16-.3,12.34-.32,18.5-.03,7.91,.47,15.89,2.28,23.61,2.75,11.7,7.93,22.42,13.74,32.85,.3,.54,.6,1.08,.88,1.63,.08,.16,.35,.83,.17,.32s.02,.03,.03,.14c.03,.31-.07-.77-.07-.5,0-.76,.27-.8,.91-1.44s.68-.91,1.44-.92c.53,0,.79,.13,.55,.07-.14-.04,.01,.07,.2,.09,.41,.04,.24,.15,.1,.02s-.35-.22-.51-.33c-.12-.08-.23-.17-.35-.25-.45-.31,.35,.28-.01,0-1.06-.83-2.5-1.04-3.54,0-.86,.86-1.07,2.7,0,3.54Z"/></g></g></svg>