<?xml version="1.0" encoding="UTF-8"?><svg id="Layer_2" xmlns="http://www.w3.org/2000/svg" viewBox="0 0 108.93 77.77"><defs><style>.cls-1{fill:#231f20;}.cls-2{fill:#9665ef;}</style></defs><g id="Layer_1-2"><g><path class="cls-2" d="M103.05,5.02s-14.04,25.12-28.84,23.17c-14.79-1.95-33.5-18.98-53.59-5.02C.52,37.12-4.51,45.49,13.92,62.52c18.42,17.03,75.65,24.01,86.81-24.84,11.17-48.85,2.32-32.66,2.32-32.66Z"/><path class="cls-1" d="M100.89,3.76c-1.39,2.48-3.01,4.85-4.7,7.14-.81,1.1-1.24,1.66-2.19,2.81s-1.84,2.17-2.82,3.2c-1.96,2.08-4.09,4.04-6.28,5.54-2.35,1.61-4.36,2.65-7.08,3.18-.17,.03-.33,.06-.5,.09,.11-.02,.43-.04-.09,0-.29,.03-.59,.05-.88,.06-.56,.02-1.5-.02-1.83-.06-1.17-.14-2.89-.56-4.24-.95-6.74-1.96-13.02-5.22-19.72-7.32-7.36-2.31-15.3-3.2-22.74-.72-4.35,1.45-8.07,3.91-11.75,6.59-3.2,2.33-6.37,4.76-9.18,7.54C2.88,34.85-.62,40.01,.09,45.94c.86,7.15,6.36,12.99,11.37,17.71,6.38,6.02,14.65,9.7,23.08,11.86,9.75,2.5,20.08,3.01,29.97,1.1s19.87-6.87,26.85-14.65c4-4.46,7.01-9.62,9.19-15.18,2.83-7.21,4.14-15.06,5.64-22.63,1.04-5.24,2.06-10.53,2.53-15.85,.18-2.05,.54-4.83-.57-6.71-1.2-2.04-3.62-2.02-5.25-.54-.71,.65-1.29,1.48-1.78,2.3-.08,.13-.16,.27-.24,.4-1.55,2.82,2.77,5.35,4.32,2.52,.25-.45,.55-.86,.83-1.29,.19-.29-.54,.58,0,.02,.13-.13,.28-.27,.4-.41,.23-.29-.67,.39-.08,.09-.46,.23-.78,.36-1.47,.17-.47-.12-.84-.43-1.12-.87,.26,.4-.17-.06-.1-.3-.02,.08,.11,.26,.11,.35,0,.1,.04,.37,.09,.45,.03,.05-.06-.76-.05-.34,0,.11,.02,.21,.03,.32,.02,.5,.04,1,.03,1.5-.03,1.54-.2,3.08-.39,4.61-.03,.23-.06,.46-.09,.7-.04,.29,.02-.12,.02-.15-.02,.14-.04,.29-.06,.43-.09,.61-.18,1.22-.27,1.83-.2,1.28-.42,2.56-.64,3.84-1.33,7.46-2.76,15-4.75,22.31-1.52,5.59-3.76,10.71-7.14,15.49-5.47,7.73-13.77,13.12-22.9,15.69-2.32,.65-4.68,1.13-7.07,1.49-.42,.06,.14-.01-.41,.06-.28,.03-.56,.07-.84,.1-.64,.07-1.28,.13-1.92,.18-1.2,.1-2.4,.16-3.6,.18-2.35,.05-4.7-.02-7.04-.21-.59-.05-1.18-.1-1.77-.17-.27-.03-.55-.06-.82-.09-.19-.02-.88-.11-.72-.09,.21,.03-.47-.07-.6-.09-.31-.05-.62-.09-.92-.14-.57-.09-1.15-.19-1.72-.3-4.34-.82-8.6-2.05-12.69-3.71-.13-.05-.26-.11-.39-.16,.09,.04,.45,.2,.02,0-.19-.08-.38-.17-.57-.25-.5-.22-1-.45-1.5-.69-.9-.43-1.79-.89-2.67-1.37-1.64-.91-3.21-1.92-4.73-3.03-.07-.05-.14-.11-.21-.16-.28-.21,.36,.28,.09,.07-.16-.13-.32-.25-.48-.38-.33-.27-.66-.55-.98-.83-1.41-1.25-2.77-2.59-4.07-3.96-2.29-2.4-4.43-5-5.88-8-.42-.87-.81-2.09-1.07-3.32-.02-.12-.04-.24-.06-.36,.02,.11,.04,.46,0-.04-.02-.27-.04-.54-.05-.81s0-.54,.01-.81c0-.17,.1-.96,.03-.48,.08-.57,.22-1.14,.39-1.69,.24-.77,.26-.83,.5-1.3,.52-1.04,1.33-2.34,1.88-3.05,2.02-2.61,4.57-4.83,7.13-6.89,3.19-2.57,6.55-5.15,10.16-7.1,6.53-3.53,13.82-3.76,20.9-1.99,6.7,1.68,12.92,4.72,19.39,7.06,5.5,1.99,11.2,3.36,16.85,1.11s9.82-6.06,13.62-10.32c3.07-3.44,5.82-7.18,8.26-11.09,.38-.6,.75-1.21,1.1-1.83,1.57-2.81-2.74-5.33-4.32-2.52Z"/></g></g></svg>