<?xml version="1.0" encoding="UTF-8"?><svg id="Layer_2" xmlns="http://www.w3.org/2000/svg" viewBox="0 0 95.38 108.02"><defs><style>.cls-1{fill:#ebee9b;}.cls-2{fill:#231f20;}</style></defs><g id="Layer_1-2"><g><path class="cls-1" d="M42.26,34.96c.79,.85,2.21,.51,2.51-.61C49.96,14.81,59.66-5.26,84.7,5.52c28.39,12.23-26.33,90.41-30.34,98.87-3.41,7.2-11.13-22.04-26.84-34.7C11.8,57.03-2.38,47.86,3.95,31.71c6.33-16.15,23.13-13.09,31.65-3.93l6.67,7.18Z"/><path class="cls-2" d="M40.49,36.73c1.85,1.63,4.74,1.62,6.17-.59,.89-1.37,1.12-3.36,1.58-4.92,.9-3.02,1.97-6.18,3.18-8.97s2.69-5.62,4.47-8.17c.75-1.08,1.49-2.01,2.49-3.07,.92-.98,2.07-2.02,2.91-2.62,2.34-1.68,4.42-2.59,7.22-3.12s6.24-.24,9.24,.51c2.64,.66,5.43,1.51,7.73,3,.17,.11,.33,.23,.49,.34,.42,.28,0-.01,.02,0,.31,.26,.63,.53,.92,.81,.25,.25,.49,.52,.73,.78,.22,.24,.27,.34,0,0,.13,.17,.25,.34,.37,.52,.42,.62,.76,1.27,1.09,1.94,.29,.59-.09-.32,.03,.08,.06,.19,.14,.37,.21,.55,.13,.38,.25,.76,.35,1.15s.19,.75,.26,1.13c.04,.18,.07,.36,.1,.54,.03,.2,.13,1.07,.05,.29,.09,.86,.17,1.72,.18,2.59,.02,.92,0,1.84-.06,2.76-.03,.5-.07,.99-.12,1.49-.02,.22-.05,.44-.07,.66-.01,.13-.03,.25-.05,.38-.04,.37,.09-.62,0,.01-.31,2.11-.74,4.2-1.27,6.26-1.21,4.74-2.86,9.37-4.7,13.89-.9,2.2-1.87,4.44-3.01,6.9s-2.31,4.88-3.52,7.29c-4.58,9.12-9.66,17.98-14.93,26.72-3.27,5.43-6.82,10.73-9.89,16.29-.16,.29-.31,.58-.46,.88-.08,.15-.36,.49-.36,.64,0-.14,.47-.53,.14-.22,.32-.29,.2-.24,.71-.4-.39,.13,.48-.04,.38-.04-.07,0,.79,.18,.33,.03-.08-.03,.68,.32,.28,.11-.43-.22,.06,.05,.1,.09-.18-.21-.41-.39-.6-.6-.12-.13-.22-.27-.34-.41,.35,.41,.13,.17-.05-.08-2.81-4.06-4.91-8.63-7.31-12.94-3.27-5.84-6.86-11.59-11.33-16.59-2.46-2.75-5.28-5.02-8.16-7.31-3.38-2.68-6.78-5.33-10.01-8.18-4.8-4.23-10.19-9.59-11-15.94-.42-3.26,.3-6.58,1.66-9.56,.67-1.48,1.53-2.98,2.53-4.17,.94-1.11,1.94-2.02,2.98-2.69,4.31-2.76,9.84-2.5,14.37-.41,2.65,1.22,4.74,2.63,6.7,4.61,1.28,1.29,2.49,2.66,3.72,3.99,1.17,1.26,2.34,2.51,3.5,3.77,2.19,2.36,5.72-1.18,3.54-3.54-2.61-2.81-5.1-5.81-7.9-8.42-4.51-4.18-10.57-7-16.78-7.03-6.79-.03-12.69,3.69-16.04,9.53-3.83,6.68-4.54,14.55-.98,21.47s10.29,12.22,16.33,17.05c3.31,2.65,6.81,5.13,9.84,8.1,2.38,2.33,4.48,4.92,6.39,7.64,3.71,5.28,6.75,10.97,9.82,16.63,1.09,2.02,2.17,4.07,3.45,5.98,.96,1.43,2.16,3.2,3.92,3.7,3.17,.91,4.35-2.16,5.62-4.33,1.51-2.58,3.1-5.11,4.67-7.65,5.06-8.23,10.04-16.51,14.66-25,5.31-9.74,10.29-19.76,14.01-30.23,2.89-8.14,5.61-17.53,3.71-26.2-.74-3.39-2.47-6.66-5.2-8.86-2.05-1.65-4.38-2.64-6.85-3.52C79.07,.76,75.18-.08,71.31,0c-6.43,.13-12.29,2.97-16.64,7.67s-7.41,11.06-9.63,17.27c-.57,1.58-1.08,3.18-1.57,4.79-.24,.81-.48,1.62-.7,2.43-.1,.35-.23,.71-.29,1.06-.09,.54-.35,.38,.11,.16l.23-.3c.41-.23,.81-.19,1.21,.11-1.01-.89-2.54-1-3.54,0-.91,.91-1.02,2.64,0,3.54Z"/></g></g></svg>