<?xml version="1.0" encoding="UTF-8"?><svg id="Layer_2" xmlns="http://www.w3.org/2000/svg" viewBox="0 0 110.84 123.1"><defs><style>.cls-1{fill:#db7dea;}.cls-2{fill:#231f20;}</style></defs><g id="Layer_1-2"><g><path class="cls-1" d="M108.31,52.64S82.37-18.23,31.23,8.44C-19.91,35.11,12.6,122.41,13.69,120.59s31.42-10.96,54.8-10.23c23.38,.73-59.18-59.54-33.24-70.87,25.94-11.32,40.91,19.73,41.64,28.13,.73,8.4,31.42-14.98,31.42-14.98Z"/><path class="cls-2" d="M110.72,51.98c-1.18-3.22-2.65-6.36-4.17-9.43-3.38-6.8-7.39-13.27-12.06-19.26-5.47-7.01-12.05-13.4-19.87-17.74C65.85,.7,55.95-1.06,46.07,.62c-11,1.87-21.79,7.61-29.5,15.67-7.03,7.34-11.56,16.69-13.98,26.5C.15,52.62-.37,62.89,.22,72.98c.54,9.21,1.97,18.39,4.08,27.37,1.4,5.95,3.04,11.92,5.28,17.62,.55,1.39,1.07,3.18,2.14,4.3,.44,.46,.96,.73,1.58,.81,.7,.09,1.32-.07,1.88-.5,.29-.22,.41-.43,.66-.71,.07-.08-.53,.62-.28,.37-.19,.18-.56,.34-.07,.09,.24-.12,.48-.25,.73-.37,.13-.06,.27-.12,.4-.18,.02,0-.49,.19,0,0,.42-.16,.83-.33,1.25-.48,5.04-1.85,10.29-3.18,15.52-4.36,7.21-1.64,14.52-2.91,21.88-3.59,3.77-.35,7.56-.55,11.35-.51,1.6,.02,3.23,.16,4.79-.24,2.24-.57,3.76-2.34,3.79-4.67,.03-2.15-1.16-4.29-2.26-6.06-1.61-2.6-3.55-5.01-5.5-7.37-5-6.05-10.37-11.79-15.55-17.69-2.77-3.15-5.5-6.33-8.12-9.6-.3-.37-.59-.75-.89-1.12-.15-.19-.29-.37-.44-.56-.37-.47,.13,.17-.22-.29-.6-.78-1.19-1.57-1.77-2.36-1.08-1.48-2.12-2.98-3.1-4.52-.9-1.42-1.76-2.87-2.52-4.37-.33-.66-.64-1.33-.94-2-.03-.07,.19,.48,0,0-.07-.18-.14-.35-.21-.53-.12-.32-.24-.65-.34-.98-.2-.62-.38-1.25-.51-1.88-.06-.28-.1-.56-.15-.84-.01-.08,.05,.66,.02,.14,0-.15-.03-.31-.04-.46-.04-.56,.04-1.1,.03-1.66,0-.39-.15,.66-.02,.19,.03-.12,.04-.24,.07-.36,.06-.27,.14-.53,.22-.79,.04-.11,.09-.22,.12-.34,.02-.06-.31,.59-.07,.18,.13-.22,.24-.45,.37-.67,.06-.1,.15-.2,.2-.3,.12-.25-.44,.48-.07,.09,.19-.19,.36-.4,.55-.59,.11-.11,.76-.65,.39-.36s.04-.02,.13-.08c.15-.1,.3-.2,.46-.3,.58-.35,1.18-.65,1.81-.9,5.34-2.17,10.71-2.63,15.99-.88,1.33,.44,1.91,.69,3.18,1.36,1.09,.57,2.14,1.22,3.15,1.93,.89,.63,1.66,1.25,2.67,2.16,.94,.85,1.83,1.75,2.68,2.69,2.88,3.19,5.41,7.1,7.38,11.31,.22,.47,.43,.94,.63,1.41,.11,.26-.05-.12-.06-.14,.05,.12,.1,.24,.15,.36,.09,.24,.19,.47,.28,.71,.31,.82,.6,1.64,.85,2.48,.2,.68,.38,1.36,.52,2.06,.03,.15,.05,.29,.08,.44,.08,.4-.11,.45,0-.08-.08,.39,.09,.98,.18,1.34,.88,3.8,5.18,3.6,8.09,2.64,4-1.32,7.74-3.52,11.31-5.72s7.34-4.75,10.9-7.29c1.59-1.14,3.18-2.28,4.73-3.47,1.07-.82,1.64-2.15,.9-3.42-.62-1.06-2.34-1.72-3.42-.9-5.03,3.83-10.25,7.45-15.63,10.76-1.87,1.15-3.76,2.26-5.71,3.27-.87,.45-1.74,.88-2.64,1.27-.23,.1-.64,.27-.17,.08-.22,.09-.44,.18-.66,.26-.39,.15-.78,.29-1.17,.41-.33,.1-.67,.2-1.01,.28-.16,.04-.31,.06-.47,.1-.58,.14,.39,.02,.04,0-.24-.01-.54,0-.78,.02-.49,.04,.31,.04,.22,.03-.12-.01-.24-.05-.35-.1-.1-.04,.64,.33,.25,.09-.3-.19,.51,.47,.22,.17,.1,.11,.17,.26,.23,.42-.04-.1-.07-.22-.08-.33-.02-.14,.09,.71,.03,.19s-.12-.99-.21-1.48c-.62-3.53-2.16-6.97-3.79-10.13-2.22-4.28-5.05-8.33-8.43-11.78-3.66-3.73-8.1-6.77-13.12-8.34-5.6-1.75-11.69-1.39-17.18,.58-3.06,1.1-6.18,2.57-7.8,5.56-1.31,2.41-1.39,5.13-.89,7.77,1.18,6.31,5.4,12.11,9.18,17.13,5.01,6.66,10.55,12.88,16.1,19.09,2.57,2.88,5.16,5.75,7.69,8.67,1.14,1.32,2.27,2.65,3.38,4,.5,.61,.99,1.22,1.47,1.83,.07,.09,.42,.55,.18,.24s.11,.14,.17,.23c.22,.29,.44,.59,.66,.88,.75,1.03,1.48,2.08,2.13,3.17,.27,.45,.52,.91,.75,1.37,.1,.2,.17,.43,.29,.62,.05,.07-.23-.66-.1-.22,.03,.11,.08,.22,.12,.33,.11,.31,.12,.81,.28,1.09,.02,.04,0-.75-.05-.36,0,.03,0,.2,.01,.23,.03,.05-.02,.16,0,.22,.08,.39,.08-.58,.06-.37-.02,.13-.05,.27-.1,.38,.07-.16,.34-.61,.03-.16,.02-.03,.48-.54,.1-.17-.29,.27,.6-.53,.09-.1-.05,.05-.15,.05-.2,.1-.12,.13,.61-.16,.31-.14-.17,.02-.38,.11-.54,.15-.09,.02-.19,.03-.28,.05-.42,.13,.6-.02,.27-.04-.24,0-.49,.04-.73,.05-3.15,.09-6.29-.05-9.44,.14-7.54,.43-15.05,1.52-22.46,2.99-5.95,1.18-11.87,2.6-17.66,4.43-1.89,.6-3.77,1.25-5.59,2.05-.44,.2-.89,.4-1.3,.67-.27,.17-.54,.37-.77,.6-.17,.18-.29,.4-.45,.58,.83-.97,2.12-1.58,3.34-.88-.15-.08,.65,.55,.41,.3,.25,.26,.41,.66,.25,.32-.08-.19-.21-.36-.3-.54-.14-.28-.27-.56-.4-.85-.07-.16-.13-.33-.21-.49,.33,.68,.12,.29-.03-.08-.9-2.22-1.66-4.5-2.38-6.78-2.28-7.24-4.02-14.67-5.27-22.16-.19-1.15-.37-2.29-.54-3.44-.18-1.26-.22-1.54-.4-2.99-.28-2.34-.51-4.69-.68-7.04-.35-4.88-.44-9.78-.19-14.67,.47-9.32,2.36-19.27,6.36-27.61,1.04-2.16,2.21-4.25,3.53-6.25,1.43-2.16,2.52-3.58,4.29-5.52,3.52-3.86,7.16-6.71,11.68-9.25,4.92-2.77,10.15-4.81,15.74-5.85,.61-.11,1.22-.21,1.83-.3,.43-.06-.32,.04,.11-.01,.13-.02,.26-.03,.39-.05,.34-.04,.68-.07,1.02-.1,1.25-.11,2.5-.16,3.75-.16,1.17,0,2.34,.07,3.51,.18,.28,.03,.55,.06,.83,.09,.12,.01,.24,.03,.35,.04,.41,.05-.37-.05,.04,0,.58,.09,1.16,.18,1.74,.29,2.19,.42,4.34,1.03,6.42,1.81,1.3,.49,1.49,.57,2.75,1.16,.99,.47,1.96,.97,2.91,1.51,1.9,1.07,3.72,2.27,5.47,3.57,.21,.16,.42,.31,.63,.47-.36-.28,.19,.15,.29,.23,.44,.35,.87,.71,1.3,1.07,.86,.72,1.7,1.47,2.52,2.23,1.57,1.47,3.07,3.01,4.51,4.61,.71,.79,1.4,1.59,2.08,2.41,.32,.39,.64,.78,.96,1.18,.16,.2,.31,.39,.47,.59,.1,.13,.56,.72,.27,.34,2.42,3.15,4.64,6.45,6.69,9.85,1.71,2.85,3.31,5.76,4.78,8.74,.57,1.15,1.12,2.32,1.66,3.49,.23,.5,.45,1,.67,1.51,.09,.21,.18,.42,.27,.62,.04,.1,.08,.2,.12,.29,.18,.42-.26-.62-.09-.2,.31,.75,.62,1.49,.9,2.25,.46,1.27,1.7,2.13,3.08,1.75,1.22-.34,2.21-1.8,1.75-3.08Z"/></g></g></svg>