<?xml version="1.0" encoding="UTF-8"?><svg id="Layer_2" xmlns="http://www.w3.org/2000/svg" viewBox="0 0 96.18 129.93"><defs><style>.cls-1{fill:#db7dea;}.cls-2{fill:#231f20;}</style></defs><g id="Layer_1-2"><g><path class="cls-1" d="M50.16,56.23c13.04-6.35,37.12-14.05,41.81-24.75s1-33.78-26.42-28.09S-4.02,36.17,3.33,68.61c7.36,32.44,20.93,67.56,44.75,56.86s-15.2-41.01-14.43-50.48c.77-9.47,16.51-18.75,16.51-18.75Z"/><path class="cls-2" d="M51.42,58.39c6.64-3.22,13.55-5.86,20.25-8.94s13.35-6.3,18.53-11.36c3.76-3.67,5.48-8.3,5.9-13.46,.38-4.8-.53-9.81-2.84-14.05-2.63-4.83-7.19-8.25-12.49-9.67-6.88-1.84-14.19-.58-20.92,1.32-13.9,3.92-27.14,11.05-38.23,20.28C10.89,31.42,1.58,43.45,.15,57.74c-.78,7.81,1.59,15.56,3.63,23.01,2.29,8.34,5.02,16.6,8.63,24.47,5.13,11.17,14.15,25.57,28.31,24.67,5.75-.37,12.25-2.93,15.58-7.85,2.65-3.9,2.29-8.92,.78-13.18-3.58-10.09-11.37-18.05-17.39-26.69-1.14-1.64-2.2-3.32-3.08-5.12-.27-.55,.07,.24-.03-.05-.05-.17-.13-.33-.18-.5-.11-.33-.14-.73-.28-1.05s0,.68,.02,.13c0-.13,0-.27-.01-.4,0-.11,.07-.67,.02-.3,.07-.43,.17-.86,.29-1.27,.78-2.66,2.83-5.22,4.92-7.35,1.13-1.15,2.33-2.23,3.57-3.26,1.13-.93,1.85-1.48,3.12-2.38,1.09-.78,2.21-1.54,3.37-2.22,2.77-1.64,.25-5.96-2.52-4.32-3.71,2.19-7.23,4.92-10.32,7.91-3.8,3.68-8.6,9.47-7.18,15.2,.93,3.76,3.67,7.15,5.93,10.19,3.12,4.21,6.39,8.3,9.34,12.63,1.45,2.13,2.83,4.32,4.02,6.61,.27,.53,.54,1.06,.79,1.61,.12,.26,.24,.53,.36,.8-.21-.49,.15,.37,.19,.49,.4,1.04,.74,2.1,.98,3.18,.05,.22,.09,.44,.13,.66,.02,.09,.13,.88,.09,.5s.03,.4,.04,.49c.02,.27,.03,.54,.03,.81,0,.47-.03,.94-.08,1.41,.05-.5,.03-.17-.03,.11-.06,.25-.11,.5-.18,.75-.06,.22-.14,.44-.21,.66-.21,.64,.11-.16-.08,.2-.24,.45-.5,.87-.76,1.31-.31,.5,.23-.22-.17,.23-.15,.17-.29,.34-.45,.5-.18,.19-.37,.38-.56,.55-.12,.11-.86,.72-.45,.41-2.21,1.69-4.7,2.69-7.39,3.29-2.39,.53-4.87,.48-7.27-.2-1.44-.41-1.97-.64-3.25-1.35-1.19-.66-2.4-1.51-3.2-2.18-2.33-1.95-4.33-4.26-6.02-6.66-4.28-6.08-7.34-12.96-9.89-19.92-2.91-7.96-5.18-16.16-7.11-24.41-1.5-6.4-1.6-12.41,.39-18.72,1.9-6.01,5.47-11.64,9.66-16.45,9.16-10.52,21.38-18.42,34.16-23.84,5.77-2.45,12.11-4.59,18.41-5.5,1.66-.24,3.35-.35,5.03-.33,1.58,.01,2.9,.13,4.21,.39,2.78,.55,4.55,1.28,6.87,2.92,.07,.05,.38,.29,.02,0,.11,.09,.23,.18,.34,.27,.19,.16,.38,.33,.57,.5,.44,.41,.86,.83,1.26,1.29,.18,.21,.36,.42,.54,.64-.33-.41,.15,.21,.23,.33,.34,.48,.65,.97,.94,1.48,.25,.45,.48,.91,.7,1.37,.29,.61,0-.03,.15,.34,.11,.29,.22,.57,.32,.86,.37,1.06,.66,2.15,.87,3.25,.05,.27,.09,.53,.14,.8,.07,.42-.03-.37,.04,.34,.06,.53,.1,1.06,.13,1.6,.05,1.08,.03,2.16-.05,3.24-.02,.26-.05,.51-.07,.76-.06,.66,.05-.28-.02,.18-.08,.55-.18,1.1-.3,1.64-.2,.91-.46,1.82-.78,2.69-.08,.21-.16,.41-.24,.62,.25-.62-.06,.1-.16,.31-.28,.55-.61,1.07-.95,1.58-.09,.13-.18,.26-.28,.39,.23-.31-.02,.02-.06,.07-.21,.26-.43,.51-.66,.76-.5,.55-1.03,1.07-1.59,1.58-2.28,2.07-5,3.79-7.8,5.38-6.51,3.69-13.45,6.55-20.32,9.49-3.01,1.29-6.02,2.58-8.97,4.01-1.21,.59-1.54,2.32-.9,3.42,.73,1.24,2.2,1.49,3.42,.9Z"/></g></g></svg>