<?xml version="1.0" encoding="UTF-8"?><svg id="Layer_2" xmlns="http://www.w3.org/2000/svg" viewBox="0 0 63.07 56.08"><defs><style>.cls-1{fill:#6a6ef0;}.cls-2{fill:#231f20;}</style></defs><g id="Layer_1-2"><g><path class="cls-1" d="M22.62,9.17c0,10.08,8.55,16.45,16.45,12.5S58.71,2.54,58.71,2.54c0,0,10.71,36.73-20.15,47.32C7.69,60.44,4,45.01,4,45.01-4.17,18.99,22.62,9.17,22.62,9.17Z"/><path class="cls-2" d="M20.12,9.17c.05,4.7,1.71,9.55,5.31,12.72,3.35,2.95,7.88,4.2,12.23,3,3.86-1.07,7.15-3.87,10.05-6.52s5.74-5.7,8.39-8.75c1.5-1.73,2.98-3.5,4.39-5.31l-4.18-1.1c.52,1.78,.85,3.63,1.13,5.46,.03,.2,.06,.4,.09,.6,.09,.64-.03-.25,.02,.11,.06,.5,.12,.99,.17,1.49,.11,1.03,.19,2.06,.24,3.09,.12,2.36,.09,4.73-.11,7.08-.05,.58-.11,1.16-.18,1.75-.05,.39,.06-.4,0,0-.03,.18-.05,.37-.08,.55-.05,.33-.11,.67-.17,1-.23,1.28-.51,2.55-.87,3.8-.8,2.83-1.55,4.65-3.04,7.16-3.01,5.07-7.7,8.96-13.42,11.35-4.09,1.71-8.52,2.9-12.87,3.71-3.14,.59-6.38,.88-9.62,.64-.32-.02-.63-.05-.94-.09-.15-.02-.3-.03-.46-.05,.51,.07,.02,0-.11-.02-.58-.1-1.16-.21-1.74-.35-.53-.13-1.05-.28-1.56-.45-.23-.08-.45-.16-.67-.24-.14-.05-.27-.11-.4-.16,.24,.1,.37,.18,.06,.02-.77-.39-1.52-.79-2.24-1.27-.16-.1-.72-.58-.09-.05-.13-.11-.27-.22-.4-.33-.28-.24-.54-.48-.8-.74-.21-.21-.4-.44-.59-.66-.29-.32-.12-.19,.07,.11-.09-.13-.19-.26-.28-.39-.26-.39-.51-.78-.72-1.19-.08-.15-.13-.32-.22-.46,.07,.12,.23,.67,.07,.14-.04-.14-.09-.28-.13-.41-.99-3.09-1.52-6.12-1.46-9.35,.03-1.75,.15-2.76,.51-4.36,.15-.67,.33-1.33,.54-1.99,.1-.32,.21-.64,.32-.95,.07-.18,.43-1.09,.3-.78,.54-1.24,1.18-2.43,1.91-3.57,.33-.52,.68-1.02,1.05-1.52,.29-.39,.08-.12,.02-.04,.11-.15,.23-.29,.35-.44,.21-.26,.43-.52,.65-.77,.8-.92,1.66-1.79,2.56-2.61,.43-.39,.87-.77,1.31-1.14,.2-.17,.41-.33,.62-.5,.11-.09,.47-.36,.03-.03,.13-.1,.25-.19,.38-.29,1.55-1.12,3.15-2.16,4.84-3.06,.6-.32,1.2-.63,1.82-.92,.22-.1,.44-.2,.66-.3,.7-.32-.35,.13,.02-.01,.14-.05,.29-.12,.43-.17,1.27-.47,2.13-1.69,1.75-3.08-.34-1.22-1.8-2.22-3.08-1.75-7.17,2.64-13.89,7.92-17.92,14.39C.34,27.07-.69,34.01,.43,40.84c.44,2.7,1.09,5.71,2.7,8.01,6.81,9.71,21.22,7.71,31.02,4.99,7.58-2.1,14.91-5.25,20.19-11.29,3.99-4.57,6.56-10.2,7.73-16.13,1.54-7.8,1.3-16.45-.84-24.14-.04-.14-.07-.28-.11-.42-.47-1.63-2.97-2.66-4.18-1.1-3.11,4.01-6.48,7.86-10.06,11.45-2.5,2.51-5.01,4.9-7.92,6.65-1.3,.78-2.89,1.42-4.2,1.46-1.62,.06-3.03-.23-4.41-1.02-3.48-1.98-5.2-6.08-5.24-10.15-.03-3.22-5.03-3.22-5,0Z"/></g></g></svg>