<?xml version="1.0" encoding="UTF-8"?><svg id="Layer_2" xmlns="http://www.w3.org/2000/svg" viewBox="0 0 100.84 64.28"><defs><style>.cls-1{fill:#231f20;}.cls-2{fill:#9665ef;}</style></defs><g id="Layer_1-2"><g><path class="cls-2" d="M95.56,2.51c-5.38-.36-24.66,38.35-45.2,33.36-15.02-3.65-17.82-28.16-31.48-27.98-6.98,.09-12.88,6.59-15.07,12.11C-1.96,34.58,12.33,57.3,27.76,61.15,58.36,68.8,110.77,3.52,95.56,2.51Z"/><path class="cls-1" d="M95.56,0c-2.83-.11-5.21,2.97-6.85,4.88-2.94,3.41-5.66,7.01-8.55,10.47-3.4,4.07-6.98,8.04-11.02,11.49-3.42,2.92-7.54,5.63-11.91,6.62-.27,.06-.53,.11-.8,.16-.15,.03-.31,.05-.46,.08,.04,0,.39-.05,.09-.01-.57,.07-1.15,.11-1.73,.12-.54,0-1.08-.02-1.63-.06-.16-.01-.31-.03-.47-.05,.04,0,.38,.06,.08,0-.31-.05-.63-.11-.94-.18-1.33-.29-2.17-.59-3.17-1.1-.53-.27-1.05-.57-1.55-.9-.25-.16-.5-.34-.74-.51-.39-.27-.15-.09-.51-.39-4.05-3.37-6.54-7.5-9.42-11.91-2.7-4.12-5.54-8.52-9.77-11.22-5.3-3.38-11.92-2.35-16.8,1.32C3.97,12.92,.46,19.09,.05,25.9c-.38,6.37,1.71,12.81,4.71,18.35,5.45,10.06,15.41,19.6,27.43,20.01,8.88,.31,17.6-3.69,25-8.23,8.65-5.3,16.47-12.01,23.52-19.28,6.09-6.29,11.92-13.17,16.3-20.78,2.1-3.65,6.19-10.89,2.11-14.62-.99-.9-2.24-1.24-3.55-1.34s-2.5,1.22-2.5,2.5c0,1.44,1.15,2.4,2.5,2.5,.64,.05-.53-.19-.03,0,.39,.15,.65,.19,.02-.05,.13,.05,.29,.13,.39,.22-.32-.27-.37-.38-.09-.01,0,0-.38-.61-.11-.09,.2,.39-.17-.3-.12-.31,.01,0,.07,.24,.08,.24,.12,0,.06,.95,.07,.23,.01-.56,0,.13,0,.29,0,.2-.02,.39-.03,.59-.03,.69,.14-.61-.03,.18-.11,.52-.24,1.04-.4,1.55-.18,.57-.4,1.11-.61,1.67-.14,.39,.24-.52,0,0-.07,.16-.14,.31-.21,.47-.15,.33-.3,.65-.46,.97-1.54,3.11-3.45,6.03-5.48,8.84-.6,.83-1.21,1.65-1.83,2.46-.33,.43,.02-.02-.23,.3-.14,.18-.28,.36-.42,.54-.36,.46-.72,.91-1.09,1.36-1.4,1.73-2.86,3.41-4.35,5.07-3.23,3.59-6.65,7.01-10.23,10.25s-7.15,6.15-11.06,8.89-7.69,5.02-11.85,6.95c-.46,.21-.92,.42-1.39,.62-.11,.05-.21,.09-.32,.14,.09-.04,.41-.17-.04,.01-.25,.1-.49,.2-.74,.3-.97,.38-1.96,.73-2.95,1.05-1.89,.6-3.81,1.06-5.77,1.35-.14,.02,.36-.04-.14,.02-.23,.02-.47,.05-.7,.07-.46,.04-.93,.07-1.39,.09-.91,.04-1.82,.03-2.72-.04-.22-.02-.45-.04-.67-.06-.15-.01-.84-.11-.19-.02-.44-.07-.87-.14-1.3-.23-1.2-.25-2.38-.61-3.52-1.07-5.04-2.03-9.64-6.17-12.99-10.57-3.63-4.76-6.36-10.35-7.35-16.28-.88-5.23,.13-10.51,3.65-14.84,1.98-2.43,4.54-4.58,7.61-5.42,1.22-.33,2.46-.42,3.71-.27-.53-.06,.19,.04,.32,.07,.25,.05,.5,.12,.74,.19,.21,.06,.41,.13,.62,.2,.14,.05,.27,.1,.4,.15-.22-.09-.21-.1,0,0,.45,.23,.9,.47,1.33,.74,.19,.12,.37,.24,.55,.37,.12,.08,.24,.17,.36,.26-.2-.15-.13-.1,.02,.03,.84,.7,1.61,1.47,2.34,2.28,1.47,1.65,2.6,3.31,3.96,5.36,5.51,8.31,11.42,18.28,22.6,18.68,10.05,.36,18.69-7.32,25.12-14.17,3.34-3.56,6.42-7.36,9.47-11.16,2.16-2.69,4.26-5.61,6.86-7.91,.09-.08,.19-.16,.28-.24,.38-.35-.15,.1-.1,.07,.18-.11,.37-.24,.54-.36,.04-.03,.25-.1,.27-.14,.02-.04-.65,.23-.27,.12,.58-.16-.7,0-.14,.02,3.22,.12,3.21-4.88,0-5Z"/></g></g></svg>