<?xml version="1.0" encoding="UTF-8"?><svg id="Layer_2" xmlns="http://www.w3.org/2000/svg" viewBox="0 0 60.65 82.95"><defs><style>.cls-1{fill:#6a6ef0;}.cls-2{fill:#231f20;}</style></defs><g id="Layer_1-2"><g><path class="cls-1" d="M38.14,80.38C59.97,49.19,72.44,10.89,29.68,2.42c0,0-34.3,5.79-25.84,33.41,8.46,27.62,34.3,44.55,34.3,44.55Z"/><path class="cls-2" d="M40.3,81.64c5.19-7.43,9.91-15.23,13.62-23.51,3.32-7.4,5.95-15.2,6.6-23.34,.56-6.89-.62-14.11-4.5-19.94-4.52-6.79-11.78-10.91-19.43-13.27-2.54-.79-5.58-1.98-8.24-1.43-1.39,.29-2.76,.65-4.12,1.07-5.2,1.59-10.21,3.92-14.51,7.27C4.52,12.54,.97,18.15,.17,24.76c-.5,4.06,.16,8.22,1.38,12.1,1.57,5.02,3.74,9.86,6.35,14.43,6.91,12.08,16.95,22.88,28.39,30.84,.2,.14,.4,.28,.6,.41,2.7,1.77,5.21-2.56,2.52-4.32-1.03-.68-2.02-1.42-3-2.17-.61-.46,.25,.2-.3-.23-.27-.21-.54-.43-.81-.64-.61-.49-1.21-.98-1.8-1.48-1.42-1.2-2.82-2.43-4.18-3.7-7.19-6.72-13.5-14.43-18.15-23.12-2.56-4.78-4.82-9.97-5.81-15.33-.32-1.71-.45-3.79-.29-5.8,.02-.25,.04-.49,.07-.74,.09-.8-.09,.48,.04-.3,.08-.47,.17-.93,.28-1.39,.21-.89,.49-1.76,.81-2.62,.02-.06,.31-.74,.09-.22,.09-.2,.18-.4,.28-.6,.16-.33,.32-.65,.5-.97,.42-.76,.89-1.47,1.38-2.18,.04-.06,.47-.62,.12-.17,.13-.17,.26-.33,.4-.5,.27-.33,.55-.64,.83-.95,.57-.62,1.17-1.2,1.8-1.76,.31-.28,.63-.55,.95-.81,.11-.09,.22-.17,.32-.26,.54-.43-.41,.3,.15-.11,.69-.51,1.38-.99,2.1-1.45,1.3-.83,2.66-1.57,4.05-2.24,.39-.19,.79-.37,1.19-.55,.11-.05,.22-.1,.34-.15,.65-.29-.16,.06,.24-.1,.69-.28,1.38-.55,2.08-.81,1.24-.45,2.49-.85,3.76-1.2,1.15-.32,2.32-.62,3.5-.82h-1.33c3.55,.71,7.25,1.7,10.48,3.08,1.48,.63,2.91,1.36,4.29,2.18,1.24,.73,2.45,1.57,3.32,2.29,4.1,3.39,6.58,7.36,7.79,12.35,.15,.61,.28,1.23,.38,1.85,.05,.31,.1,.63,.15,.94-.06-.48,.05,.53,.07,.65,.13,1.35,.18,2.71,.15,4.06-.06,3.06-.36,5.27-.97,8.18-1.33,6.29-3.63,12.29-6.39,18-3.49,7.23-7.7,14.1-12.3,20.68-.77,1.11-.2,2.78,.9,3.42,1.25,.73,2.64,.21,3.42-.9Z"/></g></g></svg>